<?xml version="1.0" encoding="utf-8"?>
<!-- Generator: Adobe Illustrator 26.0.3, SVG Export Plug-In . SVG Version: 6.00 Build 0)  -->
<svg version="1.1" id="_x31_" xmlns="http://www.w3.org/2000/svg" xmlns:xlink="http://www.w3.org/1999/xlink" x="0px" y="0px"
	 viewBox="0 0 2993.8 2569.77" style="enable-background:new 0 0 2993.8 2569.77;" xml:space="preserve">
<style type="text/css">
	.st0{opacity:0.45;fill:#FFFFFF;enable-background:new    ;}
	.st1{fill:#FFFFFF;}
	.st2{opacity:0.2;fill:#FFFFFF;enable-background:new    ;}
	.st3{fill:#FFFFFF;stroke:#FFFFFF;stroke-miterlimit:10;}
</style>
<g id="_x31__00000031185033155741130690000002848214183370835636_">
	<path class="st0" d="M1615.97,676.37c-32.26-19.3-64.52-38.59-96.78-57.89l-36.59-11.94c-20.13,4.77-46.95,13.28-76.01,29.12
		c-11.74,6.4-23.3,15.14-32.69,21.87c0.19,0.54-1.2,6.32-1.24,7.02c-0.53,9.05-4.1,10.97-3.79,20.03c0.11,3.22-0.06,8.72,0,11.93
		c30.85-21,87-53.81,120.83-54.16c33.37-0.35,90.37,40.05,126.44,68.61c0.78-3.42,1.43-7.33,1.73-11.67
		C1618.52,690.09,1617.36,682.23,1615.97,676.37z"/>
	<path class="st0" d="M1157.23,1079.42c-10.06,38,4.73,71.35,20.13,104.31c25.05,53.6,55.42,104.17,88.93,152.88
		c0.46,0.67,0.95,1.31,2.81,3.85c0-12.06,0-21.95,0-33.98c4.88,5.28,5.69,10.01,7.26,14.28c8.32,22.67,15.71,45.75,27.5,66.95
		c13.46,24.2,32.6,44.05,50.88,64.51c12.8,14.33,25.79,28.49,38.65,42.77c1.44,1.59,3.26,3.03,3.35,5.48
		c-10.34-4.31-17.66-12.79-26.44-19.23c-43.96-32.22-76.53-74.62-105.83-119.75c-35.35-54.43-67.28-110.85-95.05-169.54
		c-10.56-22.32-21.51-44.81-22.34-70.18C1146.59,1106.92,1148.63,1092.29,1157.23,1079.42z"/>
	<path class="st0" d="M1819.36,1080.84c10.06,38-4.73,71.35-20.13,104.31c-25.05,53.6-55.42,104.17-88.93,152.88
		c-0.46,0.67-0.95,1.31-2.81,3.85c0-12.06,0-21.95,0-33.98c-4.88,5.28-5.69,10.01-7.26,14.28c-8.32,22.67-15.71,45.75-27.5,66.95
		c-13.46,24.2-32.6,44.05-50.88,64.51c-12.8,14.33-25.79,28.49-38.65,42.77c-1.44,1.59-3.26,3.03-3.35,5.48
		c10.34-4.31,17.66-12.79,26.44-19.23c43.96-32.22,76.53-74.62,105.83-119.75c35.35-54.43,67.28-110.85,95.05-169.54
		c10.56-22.32,21.51-44.81,22.34-70.18C1830,1108.33,1827.96,1093.7,1819.36,1080.84z"/>
	<path class="st1" d="M1416.9,1524.95c-4.63-6.89-9.43-14.01-15.41-20.43c-1.48-1.59-2.99-3.1-4.45-4.57
		c-0.65-0.65-1.3-1.3-1.95-1.96l-1.03-1.05l-1.36-0.57c-5.89-2.45-10.89-6.73-16.18-11.26c-2.78-2.38-5.65-4.84-8.76-7.11
		c-46.27-33.92-78.55-78.6-104.03-117.84c-36.09-55.59-67.91-112.34-94.58-168.69l-0.82-1.73c-10.32-21.79-20.06-42.37-20.83-65.58
		c-0.53-16.06,2.31-28.16,8.93-38.07l0.34-0.56c12.93-23.67,30.67-43.9,49.25-64.25c1.7-1.87,3.52-3.75,5.27-5.58
		c0.85-0.88,1.69-1.76,2.54-2.65l2.66-2.8l-0.82-3.77c-0.8-3.68-0.18-6.62,5.41-11.64c19.56-17.57,40.14-33.19,61.85-46.93
		c-2.42-3.63-4.44-7.5-5.22-11.85c-0.11-0.6-0.18-1.19-0.24-1.79c-23.34,14.57-45.47,31.2-66.11,49.75
		c-4.93,4.43-11.05,11.29-10.46,21.51c-0.03,0.03-0.06,0.06-0.08,0.09c-1.82,1.89-3.69,3.85-5.52,5.85
		c-19.13,20.95-37.43,41.83-51.12,66.81c-8.27,12.51-11.82,27.25-11.19,46.36c0.86,26.23,11.72,49.16,22.22,71.33l0.82,1.73
		c26.94,56.93,59.08,114.26,95.52,170.39c26.2,40.34,59.47,86.35,107.63,121.65c2.66,1.95,5.2,4.13,7.89,6.43
		c5.57,4.77,11.32,9.69,18.66,13.04c0.34,0.34,0.68,0.68,1.02,1.03c1.44,1.45,2.8,2.81,4.11,4.22c1.12,1.2,2.2,2.44,3.24,3.71
		c-8.39-7.06-17.16-13.51-25.78-19.85c-3.22-2.37-6.56-4.83-9.8-7.26c-9.96-7.48-20.42-14.48-30.52-21.25l-3.6-2.41
		c-17.89-12-31.53-28.04-46.5-48.43c-52.93-72.06-98.92-149.36-136.7-229.76c-4.03-8.57-7.09-16.27-9.36-23.53
		c-1.7-5.43-2.88-11.09-4.13-17.09c-0.56-2.69-1.14-5.46-1.78-8.26l-1.9-8.34l-2.91,1.18c0.07-3.36,0.42-6.8,0.77-10.36
		c0.13-1.34,0.27-2.68,0.39-4.02c2.91-32.61,15.62-62.66,38.86-91.88c23.65-29.74,41.43-64.35,57.64-112.25
		c9.78-28.91,20.25-55.24,31.63-79.46c-5.22,0.49-10.34-1.14-13.7-5.06c-11.41,24.4-21.91,50.87-31.72,79.85
		c-15.65,46.23-32.68,79.49-55.24,107.85c-25.07,31.52-38.8,64.11-41.97,99.65c-0.11,1.29-0.24,2.58-0.37,3.87
		c-0.76,7.59-1.54,15.44,0.14,23.71l1.74,8.59l4.25-1.72c1.24,5.95,2.54,12.09,4.41,18.07c2.47,7.9,5.77,16.2,10.08,25.37
		c38.18,81.25,84.66,159.36,138.15,232.18c15.88,21.62,30.48,38.72,50.13,51.9l3.61,2.42c9.95,6.67,20.24,13.56,29.89,20.8
		c3.29,2.47,6.66,4.95,9.91,7.34c17.12,12.6,33.3,24.5,46.26,40.37l3.34,4.09l4.92-1.9c2.74-1.06,4.51-1.57,5.96-1.22l21.03,5.04
		l-13.71-16.73C1423.73,1535.09,1420.41,1530.17,1416.9,1524.95z"/>
	<path class="st1" d="M1616.53,679.91c-0.54-3.87-1.4-7.71-1.71-11.61c-2.04-1.71-4.08-3.4-6.14-5.05
		c-26.32-21.02-55.6-37.99-87.01-50.44c-21.41-8.48-42.56-9.04-62.87-1.66c-30.46,11.07-58.83,26.59-84.89,46.37
		c-0.4,6.48-3.24,12.28-4.16,18.68c-0.13,0.92-0.23,1.85-0.3,2.78c28.41-23.94,59.9-42.26,94.12-54.69
		c17.24-6.27,34.57-5.77,52.96,1.52c37.64,14.91,71.08,35.87,101.04,63.38C1617.29,686.08,1616.96,682.99,1616.53,679.91z"/>
	<path class="st1" d="M1834.57,1034c-4.65-6.88-9.64-13.58-14.47-20.05c-6.74-9.04-13.72-18.39-19.59-28.09
		c-13.01-21.47-21.33-45.71-29.37-69.16c-0.96-2.8-1.92-5.59-2.89-8.39c-7.91-22.84-16.1-43.91-24.7-63.51
		c-0.17,1.38-0.52,2.79-1.16,4.24c-1.88,4.24-5.43,6.62-8.76,9.5c7.21,16.99,14.13,35.1,20.86,54.54c0.96,2.78,1.92,5.57,2.87,8.35
		c8.29,24.17,16.87,49.17,30.69,71.98c6.24,10.29,13.42,19.93,20.37,29.25c4.73,6.34,9.62,12.89,14.08,19.49
		c17.33,25.66,26.71,55.6,28.51,91.17l-3.52,5.67c-2.77,4.47-2.95,8.97-3.09,12.58c-0.06,1.49-0.12,2.9-0.36,3.96
		c-5.08,22.54-15.92,43.55-26.41,63.86l-1.69,3.27c-34.28,66.53-73.57,131.39-120.13,198.27c-18.45,26.5-42.5,45.75-72.94,66.5
		c-12.95,8.83-27.19,18.78-40.97,30.24c1.63-2.04,3.32-4.01,5.1-5.91c2.95-0.81,5.06-2.47,6.12-3.31c3.6-2.83,7.21-5.63,10.83-8.43
		c7.36-5.71,14.98-11.61,22.34-17.66c41.56-34.16,72.31-77.43,94.45-111.3c26.79-40.99,52.05-84.59,77.2-133.31
		c16.29-31.55,27.58-56.29,36.6-80.23c12.19-32.31,8.39-64.04-11.59-97.01c-27.41-45.22-64.99-83.89-114.64-117.91
		c0.15,5.63-0.25,11.34-1.24,16.9c44.45,31.63,78.41,67.29,103.43,108.56c17.51,28.89,20.92,56.47,10.42,84.32
		c-8.82,23.39-19.9,47.66-35.92,78.69c-24.92,48.27-49.93,91.46-76.45,132.02c-21.58,33-51.48,75.11-91.51,108.02
		c-7.2,5.92-14.73,11.75-22.01,17.4c-3.64,2.82-7.28,5.65-10.91,8.49c-0.48,0.38-0.76,0.57-0.92,0.67l-2.76-0.04l-2.18,2.21
		c-8.1,8.19-14.39,17.55-20.48,26.6c-1.58,2.35-3.22,4.79-4.85,7.14c-4.24,8.82-8.48,17.64-12.71,26.46
		c4.87-2.97,9.74-5.94,14.61-8.91c1.55,1.14,3.67,0.96,4.9-0.3l0.4,7.7l11.6-11.84c18.49-18.87,40.32-34.28,59.33-47.24
		c31.77-21.66,56.97-41.89,76.69-70.22c46.93-67.42,86.55-132.82,121.12-199.93l1.68-3.26c10.91-21.13,22.18-42.98,27.67-67.34
		c0.1-0.42,0.18-0.84,0.25-1.26l7.32,6.98l0.08-16.9C1866.1,1102.66,1855.85,1065.51,1834.57,1034z"/>
	<path class="st1" d="M1599.38,905.75c1.72-3.71,2.62-7.97,3.11-12.02c0.06-0.51,0.11-1.02,0.16-1.53
		c-18.83-6.8-38.76-12.71-59.95-17.75c-35.7-8.49-65.72-9.74-94.47-3.95c-20.91,4.21-41.2,9.55-60.75,15.96
		c0,0.02,0.01,0.04,0.01,0.07c0.72,4.53,0.97,9.38,2.36,13.79c19.54-6.48,39.9-11.84,61.14-16.12c27.06-5.45,54.35-4.26,88.48,3.85
		c21.21,5.04,41.12,10.96,59.87,17.8C1599.34,905.82,1599.36,905.79,1599.38,905.75z"/>
	<path class="st1" d="M1457.9,832.37c-24.21,5.11-48.53,13.5-75.47,26.06c0.29,2.95,0.79,6.29,1.65,9.91
		c0.97,4.1,2.18,7.69,3.39,10.72c9.08-3.28,21.74-7.43,37.14-11.14c19.91-4.79,41.59-10.02,69.46-9.16
		c24.14,0.74,42.27,5.72,62.71,11.33c18.86,5.18,34.3,10.99,45.44,15.63c0.24-3.04,0.2-6.35,0.34-9.9
		c0.14-3.59,0.24-7.14-0.63-10.63c-21.13-10.58-43.99-20.45-68.09-27.6C1505.32,829.11,1481.19,827.46,1457.9,832.37z"/>
	<g>
		<path class="st1" d="M1493.62,1097.63v-14.18C1492.33,1088.33,1492.33,1093.03,1493.62,1097.63z"/>
		<path class="st1" d="M1020.25,866.46c0.9,1.26,1.79,2.52,2.69,3.78c0.98-1.18,1.95-2.35,2.93-3.53
			C1024,866.62,1022.12,866.54,1020.25,866.46z"/>
		<path class="st1" d="M971.68,784.99c0.38,0.2,0.76,0.4,1.14,0.6c-0.37-0.22-0.73-0.43-1.1-0.65
			C971.73,784.95,971.68,784.99,971.68,784.99z"/>
		<path class="st1" d="M1393.01,1294.69L1393.01,1294.69c-1.04-1.58-2.08-3.16-3.12-4.73c-0.18,2.64-0.35,5.27-0.53,7.91
			c3.51,9.24,7.03,18.48,10.54,27.71C1400.13,1314.45,1412.83,1300.23,1393.01,1294.69z"/>
		<path class="st1" d="M2148.98,618.16c-0.62-1.94-1.25-3.88-1.87-5.82c-0.29-0.84-0.57-1.68-0.86-2.52
			c-1.7-4.22-3.4-8.43-5.09-12.65l0.21-0.8l-0.7-0.46c-0.86-1.88-1.72-3.76-2.58-5.64c-2.18-4.61-4.35-9.21-6.53-13.82
			c-1.16-2.23-2.32-4.47-3.48-6.7l-0.23-0.41c-2.15-3.76-4.29-7.52-6.44-11.28c-1.16-2.21-2.32-4.42-3.48-6.63
			c-2.73-4.68-5.46-9.36-8.19-14.05l0,0c-1.07-1.83-2.14-3.66-3.2-5.49c-14.18-30.76-39.78-47-71.47-52.68
			c2.19-3.44,5.97-6.66,5.46-8.96c-6.74-30.07-5.62-61.89-21.75-89.89c-12.66-21.97-34.33-34.01-54.22-47.92
			c-6.39-4.47-11.99-0.45-9.53,7c2.37,7.16,6.7,14.22,11.83,19.89c14.57,16.06,28.94,32.02,32.81,54.13
			c0.79,4.5,1.22,9.05,0.07,14.18c-3.18-5.91-6.37-11.83-9.55-17.74c-0.88,0.11-1.76,0.23-2.64,0.34
			c2.83,19.72,5.65,39.44,8.58,59.83c-5.09,0.81-12.54,1.99-20,3.17c-0.61,1.57-1.21,3.14-1.82,4.71
			c8.35,4.97,16.52,10.27,25.11,14.82c7.97,4.22,16.38,7.65,24.6,11.43c-7.27-0.58-14.54-1.16-23.73-1.9
			c7.84,23.44,14.28,46.85,4.99,71.46c0.45-8.67,0.27-18.79-1.28-29.94c-0.7-5.07-1.61-9.82-2.64-14.22
			c-0.81,5.72-2.18,14.33-4.46,24.75c-1.02,4.67-1.75,7.25-2.82,11.87c-5.26,22.7-9.99,45.54-15.94,68.07
			c-2.35,8.89-1.83,14.42,7.28,19.17c12.06,6.28,23.28,14.09,36.58,22.3c10.31-26.75,22.73-52.93,24.15-82.29
			c0.79-16.16,0.18-32.38,0.57-48.56c0.39-16.04,1.13-32.02-19.68-38.06c1.76-0.11,3.51-0.23,5.27-0.34
			c11.86,4.44,23.73,8.89,35.59,13.33c-2.46,1.6-6.18,3.41-10.21,2.61c-2.91-0.58-4.84-2.3-5.31-1.81
			c-0.93,0.99,5.85,8.82,5.85,8.82c5.52,6.38,13.27,19.06,22.69,46.95c1.21,4.64,2.42,9.29,3.64,13.93
			c0.58,2.81,1.15,5.62,1.73,8.43c0.02,1.81,0.04,3.61,0.06,5.42c-0.17,1.88-0.33,3.76-0.5,5.64c-0.4,2.77-0.8,5.54-1.2,8.32
			c-0.15,0.93-0.29,1.86-0.44,2.79c-3.85,14.83-7.71,29.66-11.56,44.48c-4.27,8.46-8.54,16.92-12.81,25.38l0,0
			c-2.73,2.98-5.46,5.96-8.19,8.94c-0.03,1.46,0.06,2.75,0.26,3.89c0.11,0.64,0.27,1.22,0.45,1.76c-0.18-0.55-0.34-1.12-0.45-1.76
			c-0.2-1.14-0.3-2.42-0.26-3.89c-2.77,1.44-5.54,2.87-8.96,4.65c3.53,5.18,6.53,9.59,9.53,14c9.41,8.6,18.82,17.19,28.23,25.79l0,0
			c6.57,6.63,13.13,13.26,19.7,19.89l0.28,0.26l0,0c8.2,15.57,15.73,33.2,21.58,52.93c0.87,2.93,1.68,5.84,2.43,8.72
			c-10.52-21.09-21.15-37.43-29.49-49.04c-3.7-5.16-8.84-12.28-16.5-21.12c-11.78-13.6-18.57-18.62-29.73-29.86
			c-16.26-16.38-16.37-20.34-28.24-32.87c-23.88-25.21-50.24-37.45-65.25-44.26c-13.62-6.17-33-13.36-57.26-17.46
			c13.33,4.31,20.67,10.62,24.96,15.84c3.39,4.12,6.66,9.72,15.14,19.96c2.41,2.91,4.47,5.26,5.87,6.84l0,0
			c-26.09,3.35-52.46,5.33-78.19,10.41c-27.31,5.39-53.97,13.83-80.99,20.68c-6.3,1.6-13.01,3.39-19.32,2.83
			c-9.02-0.81-17.19-2.09-21.31,8.21c-0.33,0.82-0.97,1.84-1.72,2.12c-13.49,5.17-26.74,11.24-40.64,15.04
			c-12.4,3.39-20.04-2.71-23.84-14.9c-1.63-5.23-3.81-8.33-5.27-10.05c-0.82-0.96-1.47-1.63-1.57-1.73
			c-12.16-12.27-42.28-117.14-42.28-117.14c-6.42-22.35-20.94-51.93-56.81-82.56c2.94,5.57,7.06,13.59,11.74,23.36
			c10.2,21.33,18.69,39.1,23.98,56.74l0,0c18.93,71.73,23.57,127.61,20.29,148.76c-2.68,17.27-8.12,31.88-8.12,31.88
			c-3.72,9.98-7.8,17.77-10.71,22.83c3.89-4.43,7.78-8.86,11.67-13.29c0.93,0.54,1.86,1.07,2.79,1.61v12.36
			c6.29,0.94,11.53,5.35,13.55,11.38c2.08,6.21,0.39,13.13-4.33,17.71c2.51-5.01,1.38-11-2.57-14.44c-3.34-2.92-8.22-3.58-12.46-1.7
			c-0.13,4-2.87,84.77-14.29,108.26c-1.75,3.59-5.29,10.89-12.68,13.67c-4.54,1.71-11.18,1.96-17.04-0.41
			c-4.38-1.76-6.6-4.28-7.41-3.58c-1.1,0.96,1.49,6.9,5.68,11.34c6.03,6.4,14.05,8.28,17.97,9.2c3.12,0.73,5.79,1.01,7.64,1.12
			c-4.74,4.77-8.73,9.6-13.53,13.49c-26.48,21.44-55.7,17.93-85.48,8.43c1.52,8.7,3.04,17.4,4.66,26.7
			c-0.13-0.02-0.26-0.01-0.39,0.02c-6.49-0.01-12.98-0.01-19.47-0.02c1.62-9.3,3.14-18,4.66-26.7c-29.78,9.51-59,13.02-85.48-8.43
			c-4.8-3.89-8.79-8.72-13.53-13.49c1.85-0.11,4.52-0.39,7.64-1.12c3.92-0.92,11.94-2.8,17.97-9.2c4.19-4.44,6.78-10.38,5.68-11.34
			c-0.81-0.71-3.03,1.81-7.41,3.58c-5.87,2.37-12.5,2.12-17.04,0.41c-7.39-2.78-10.94-10.08-12.68-13.67
			c-11.42-23.49-14.16-104.26-14.29-108.26c-4.24-1.88-9.11-1.21-12.46,1.7c-3.95,3.44-5.08,9.43-2.57,14.44
			c-4.72-4.58-6.41-11.5-4.33-17.71c2.02-6.03,7.27-10.43,13.55-11.38v-12.36c0.93-0.54,1.86-1.07,2.79-1.61
			c3.89,4.43,7.78,8.86,11.67,13.29c-2.91-5.06-6.99-12.84-10.71-22.83c0,0-5.44-14.6-8.12-31.88
			c-3.28-21.15,1.36-77.03,20.29-148.76l0,0c5.29-17.64,13.78-35.41,23.98-56.74c4.67-9.77,8.8-17.79,11.74-23.36
			c-35.87,30.63-50.39,60.2-56.81,82.56c0,0-30.12,104.86-42.28,117.14c-0.09,0.1-0.75,0.77-1.57,1.73
			c-1.46,1.71-3.64,4.82-5.27,10.05c-3.8,12.19-11.44,18.29-23.84,14.9c-13.9-3.8-27.15-9.87-40.64-15.04
			c-0.75-0.29-1.39-1.31-1.72-2.12c-4.12-10.31-12.29-9.02-21.31-8.21c-6.31,0.57-13.02-1.23-19.32-2.83
			c-27.02-6.84-53.68-15.29-80.99-20.68c-25.73-5.08-52.1-7.06-78.19-10.41l0,0c1.41-1.58,3.46-3.93,5.87-6.84
			c8.48-10.24,11.75-15.84,15.14-19.96c4.29-5.21,11.63-11.53,24.96-15.84c-24.26,4.1-43.64,11.29-57.26,17.46
			c-15.01,6.8-41.37,19.04-65.25,44.26c-11.86,12.53-11.98,16.49-28.24,32.87c-11.16,11.24-17.95,16.26-29.73,29.86
			c-7.66,8.84-12.8,15.96-16.5,21.12c-8.34,11.61-18.97,27.95-29.49,49.04c0.76-2.88,1.57-5.79,2.43-8.72
			c5.85-19.73,13.38-37.36,21.58-52.93l0,0c0-0.01,0.28-0.26,0.28-0.26c-0.29-1.44-0.58-2.87-0.87-4.31
			c0.29,1.44,0.58,2.87,0.87,4.31c6.57-6.63,13.13-13.26,19.7-19.89l0,0c9.41-8.6,18.82-17.19,28.23-25.79c3-4.41,6-8.82,9.53-14
			c-3.42-1.78-6.19-3.21-8.96-4.65c-2.73-2.98-5.46-5.96-8.19-8.94c-1.77,2.45-3.53,4.91-5.45,7.58c1.92-2.67,3.69-5.13,5.45-7.58
			c-4.27-8.46-8.54-16.92-12.81-25.38l0,0c-3.85-14.83-7.71-29.66-11.56-44.48c-0.15-0.93-0.29-1.86-0.44-2.79l0,0
			c-0.4-2.77-0.8-5.54-1.2-8.32c-0.17-1.88-0.33-3.76-0.5-5.64c0.02-1.81,0.04-3.61,0.06-5.42c0.58-2.81,1.15-5.62,1.73-8.43
			c1.21-4.64,2.42-9.29,3.64-13.93c9.42-27.88,17.17-40.57,22.69-46.95c0,0,6.78-7.83,5.85-8.82c-0.46-0.5-2.4,1.23-5.31,1.81
			c-4.02,0.8-7.74-1.01-10.21-2.61c11.86-4.44,23.73-8.89,35.59-13.33c1.76,0.11,3.51,0.23,5.27,0.34
			c-20.82,6.03-20.07,22.02-19.68,38.06c0.39,16.18-0.21,32.4,0.57,48.56c1.43,29.36,13.84,55.54,24.15,82.29
			c13.3-8.22,24.52-16.03,36.58-22.3c9.12-4.75,9.63-10.27,7.28-19.17c-5.95-22.53-10.68-45.36-15.94-68.07
			c-1.07-4.62-1.8-7.2-2.82-11.87c-2.28-10.42-3.65-19.03-4.46-24.75c-1.03,4.4-1.93,9.14-2.64,14.22
			c-1.54,11.15-1.72,21.27-1.28,29.94c-9.29-24.62-2.85-48.02,4.99-71.46c-9.19,0.74-16.46,1.32-23.73,1.9
			c8.22-3.78,16.63-7.21,24.6-11.43c8.59-4.55,16.76-9.85,25.11-14.82c-0.61-1.57-1.21-3.14-1.82-4.71
			c-7.46-1.18-14.91-2.36-20-3.17c2.92-20.39,5.75-40.11,8.58-59.83c-0.88-0.11-1.76-0.23-2.64-0.34
			c-3.18,5.91-6.37,11.83-9.55,17.74c-1.15-5.13-0.72-9.68,0.07-14.18c3.87-22.11,18.24-38.06,32.81-54.13
			c5.14-5.66,9.47-12.73,11.83-19.89c2.47-7.45-3.13-11.47-9.53-7c-19.88,13.91-41.56,25.95-54.22,47.92
			c-16.13,27.99-15.02,59.82-21.75,89.89c-0.52,2.3,3.26,5.52,5.46,8.96c-31.69,5.68-57.29,21.91-71.47,52.68
			c-1.07,1.83-2.14,3.66-3.2,5.49c-2.73,4.68-5.46,9.36-8.19,14.05l0,0c-1.16,2.21-2.32,4.42-3.48,6.63
			c0.84,2.55,1.68,5.1,2.71,8.23c0.62,1.88,1.31,3.97,2.11,6.4l0,0c-0.8-2.43-1.49-4.52-2.11-6.4c-1.03-3.13-1.87-5.68-2.71-8.23
			c-2.15,3.76-4.3,7.52-6.44,11.28l-0.23,0.41c-1.16,2.23-2.32,4.47-3.48,6.7c-2.18,4.61-4.35,9.21-6.53,13.82
			c-0.86,1.88-1.72,3.76-2.58,5.64l-0.7,0.46l0.21,0.8c-1.7,4.22-3.4,8.43-5.09,12.65c-0.29,0.84-0.57,1.68-0.86,2.52
			c-0.62,1.94-1.25,3.88-1.87,5.82c-0.16,0.91-0.31,1.81-0.47,2.72c0.53,6.68,1.05,13.35,1.58,20.03c0.33-0.23,0.63-0.47,0.92-0.7
			c0.87-0.69,1.59-1.38,2.17-2.05c-0.58,0.67-1.3,1.36-2.17,2.05c-0.29,0.23-0.6,0.46-0.92,0.7c0.62,2.09,1.23,4.17,1.85,6.26l0,0
			c8.42,21.84,16.83,43.68,25.25,65.52c11.52,27.84,8.06,53.85-5.93,80.66c-24.16,46.32,2.54,106.45,53.5,120.62
			c21.58,6,44.57,9.21,67.01,9.67c22.48,0.47,45.1-3.75,67.58-6.53c14.26-1.76,28.36-4.66,42.54-7.05
			c-0.17-0.61-0.35-1.22-0.52-1.83c-33.31,0-66.63,0-99.94,0c2.72-1.97,5.9-3.29,9.17-3.54c27.91-2.06,55.83-3.91,83.74-5.86
			c22.25-1.56,45.4,0.01,66.47-5.69c18.94-5.12,35.66-18.13,53.14-28.03c1.64-0.93,1.72-4.5,1.81-4.75
			c-59.77,2.12-119.31,4.23-178.85,6.34c-0.98,1.18-1.95,2.35-2.93,3.53c-0.9-1.26-1.79-2.52-2.69-3.78
			c-4.22-0.48-8.46-0.85-12.66-1.47c-20.1-2.95-40.61-4.39-60.16-9.39c-20.8-5.31-25.04-18.19-13.66-35.46
			c8.42-12.78,18.03-24.82,27.11-37.18c2.64-3.01,5.27-6.03,7.91-9.04c-0.02,0.03-0.03,0.07-0.05,0.1l0,0l0,0l0.13-0.17
			c0.06-0.08,0.13-0.17,0.13-0.17c0.93,1.19,1.86,2.37,2.8,3.56c3.63-0.63,7.35-0.94,10.87-1.94c21.11-6.02,42.16-12.2,63.24-18.33
			c17.11-0.77,34.22-1.54,51.34-2.32c1.9,0.04,3.8,0.08,5.71,0.13c24.2,5.81,48.45,11.45,72.57,17.55
			c6.42,1.62,12.47,4.66,18.68,7.05c-2.76-3.61-4.74-8.9-8.43-10.53c-16.27-7.22-33.07-13.3-49.59-19.99
			c-3.45-1.4-6.57-3.58-9.84-5.41c-1.38,0.38-2.85,0.6-4.34,0.77c1.81-0.44,3.34-0.66,4.34-0.77c37.13-0.16,66.58,19.09,96.56,36.67
			c9.68,5.68,18.29,13.11,27.38,19.74c1.3,0.59,2.6,1.18,3.9,1.77c-0.26-1.37-0.52-2.74-0.77-4.11l0,0
			c-8.51-8.88-17.02-17.77-24.7-25.78c24.31-3.77,48.73,40.87,50.26,76.12c-8.34-11.38-15.73-21.49-23.13-31.59l0,0l-0.25-0.01
			c-0.19-0.52-0.56-0.77-1.11-0.77c-14.14-12.61-26.7-27.58-47.57-30.09c-4.25,7.42-3.19,11.49,6.6,12.77
			c11.16,1.45,21.59,6.43,22.95,18.44c1.35,11.92,7.17,14.62,17.7,12.81c-0.12,3.79-0.39,7.59-0.31,11.38
			c0.08,4.22-0.76,9.03,1.01,12.52c3.52,6.97,7.44,14.37,13.14,19.56c24.57,22.31,6.17,54.5,19.94,79.09
			c0.34,0.61-0.38,1.76-0.55,2.67c-2.76,14.39,1.83,17.99,16.91,13.26c0.19-3.18,1.02-6.46,0.45-9.51
			c-4.16-22.39-8.69-44.72-12.84-67.12c-0.71-3.82-0.1-7.87,2.02-12.21c13.56,26.38,10.99,56.42,19.29,83.92
			c0.56,3.55,1.12,7.1,1.49,9.44c-4.91,2.02-11.07,2.75-12.14,5.42c-1.68,4.21-1.55,13.09,0.64,14.08
			c8.74,3.96,7.2,10.12,7.39,17.01c0.09,3.18,3.45,7.89,6.38,8.84c2.21,0.72,6.17-3.31,9.22-5.4c6.05-4.15,9.27-15.79,17.71-8.92
			c3.64,16.62,6.79,30.95,10.07,45.9c1.77-0.13,5.27-0.38,8.77-0.63c-3.73,4.14-7.58,7.04-11.93,8.48
			c-20.88,6.91-28.57,22.08-28.79,42.24c-0.13,12.5-0.05,25-0.55,37.48c-0.81,20.33,5.96,37.22,18.72,53.73
			c9.9,12.8,17.58,28.73,21.13,44.37c7.09,31.22,10.67,63.2,15.71,94.86c3.26,17.94,15.21,30.8,25.97,44.89
			c2.35-2.73,3.77-4.37,5.19-6.02c0.95,1.43,2.42,2.74,2.78,4.29c9.58,40.9,18.65,81.92,28.72,122.7
			c4.62,18.73,17.45,31.5,36.04,38.12c3.1,1.1,8.18,0.81,10.46-1.04c1.79-1.45,0.52-6.32,0.88-9.65c0.8-7.5,1.78-14.99,2.68-22.49
			c1.24-0.01,2.48-0.01,3.72-0.02c1.24,0.01,2.48,0.01,3.72,0.02c0.9,7.49,1.87,14.98,2.68,22.49c0.36,3.32-0.91,8.19,0.88,9.65
			c2.28,1.85,7.36,2.15,10.46,1.04c18.59-6.63,31.42-19.39,36.04-38.12c10.07-40.79,19.14-81.8,28.72-122.7
			c0.36-1.56,1.83-2.87,2.78-4.29c1.42,1.65,2.84,3.3,5.19,6.02c10.76-14.09,22.72-26.95,25.97-44.89l0,0
			c5.03-31.66,8.61-63.64,15.71-94.86c3.55-15.64,11.23-31.57,21.13-44.37c12.76-16.51,19.53-33.4,18.72-53.73
			c-0.5-12.48-0.42-24.99-0.55-37.48c-0.22-20.16-7.91-35.33-28.79-42.24c-4.35-1.44-8.2-4.34-11.93-8.48c3.5,0.25,7,0.5,8.77,0.63
			c3.28-14.95,6.42-29.28,10.07-45.9c8.43-6.87,11.66,4.77,17.71,8.92c3.05,2.09,7,6.12,9.22,5.4c2.93-0.95,6.3-5.66,6.38-8.84
			c0.19-6.89-1.35-13.05,7.39-17.01c2.19-0.99,2.32-9.87,0.64-14.08c-1.06-2.67-7.23-3.4-12.14-5.42c0.37-2.34,0.93-5.89,1.49-9.44
			c8.3-27.5,5.73-57.54,19.29-83.92c2.12,4.33,2.73,8.39,2.02,12.21c-4.14,22.4-8.68,44.72-12.84,67.12
			c-0.56,3.04,0.27,6.33,0.45,9.51c15.08,4.73,19.67,1.14,16.91-13.26c-0.17-0.91-0.89-2.06-0.55-2.67
			c13.77-24.6-4.63-56.79,19.94-79.09c5.71-5.18,9.62-12.59,13.14-19.56c1.77-3.49,0.92-8.3,1.01-12.52
			c0.08-3.79-0.19-7.59-0.31-11.38c10.53,1.81,16.34-0.89,17.7-12.81c1.36-12.01,11.8-16.99,22.95-18.44
			c9.79-1.27,10.84-5.35,6.6-12.77c-20.87,2.51-33.43,17.48-47.57,30.09c-0.54,0-0.91,0.26-1.11,0.77l-0.25,0.01l0,0
			c-7.4,10.1-14.8,20.21-23.13,31.59c1.53-35.25,25.96-79.89,50.26-76.12c-7.68,8.02-16.19,16.9-24.7,25.78
			c1.04,0.78,2.08,1.56,3.13,2.34c9.1-6.63,17.7-14.06,27.38-19.74c29.98-17.58,59.43-36.84,96.56-36.67
			c1.01,0.11,2.53,0.33,4.34,0.77c-1.49-0.17-2.96-0.39-4.34-0.77c-3.27,1.82-6.39,4.01-9.84,5.41
			c-16.53,6.68-33.32,12.77-49.59,19.99c-3.69,1.63-5.66,6.93-8.43,10.53c6.22-2.39,12.26-5.43,18.68-7.05
			c24.12-6.1,48.37-11.74,72.57-17.55l0,0l0,0c1.9-0.04,3.8-0.08,5.71-0.13c17.11,0.77,34.22,1.54,51.34,2.32
			c21.07,6.13,42.13,12.31,63.24,18.33c3.51,1,7.24,1.31,10.87,1.94c0.93-1.19,1.86-2.37,2.8-3.56c0,0,0.06,0.08,0.13,0.17
			l0.13,0.17l0,0l0,0c-0.02-0.03-0.03-0.07-0.05-0.1c2.64,3.01,5.27,6.03,7.91,9.04c9.08,12.37,18.69,24.4,27.11,37.18
			c11.38,17.26,7.14,30.14-13.66,35.46c-19.55,4.99-40.06,6.44-60.16,9.39c-4.2,0.62-8.44,0.98-12.66,1.47
			c-0.9,1.26-1.79,2.52-2.69,3.78c0.9-1.26,1.79-2.52,2.69-3.78c-1.87,0.08-3.74,0.16-5.62,0.25l0,0
			c-59.54-2.11-119.08-4.22-178.85-6.34c0.09,0.26,0.16,3.82,1.81,4.75c17.48,9.9,34.21,22.91,53.14,28.03
			c21.08,5.7,44.22,4.14,66.47,5.69c27.91,1.95,55.84,3.8,83.74,5.86c3.27,0.24,6.45,1.57,9.17,3.54c-33.31,0-66.63,0-99.94,0
			c-0.17,0.61-0.35,1.22-0.52,1.83c14.17,2.39,28.28,5.28,42.54,7.05c22.48,2.78,45.11,6.99,67.58,6.53
			c22.44-0.47,45.43-3.67,67.01-9.67c50.96-14.17,77.67-74.3,53.5-120.62c-13.99-26.81-17.45-52.82-5.93-80.66
			c8.42-21.84,16.83-43.68,25.25-65.52c0.62-2.09,1.23-4.17,1.85-6.26c0.53-6.68,1.05-13.35,1.58-20.03
			C2149.3,619.97,2149.14,619.07,2148.98,618.16z M2076.6,682.86c0.98-2.07,1.52-3.94,1.65-5.7
			C2078.12,678.93,2077.58,680.8,2076.6,682.86z M2077.42,672.11c-0.68-1.64-1.75-3.26-3.18-4.96
			C2075.67,668.85,2076.74,670.47,2077.42,672.11z M2065.31,698.39c-1.36-1.9-2.64-3.68-3.91-5.43
			C2062.67,694.71,2063.95,696.49,2065.31,698.39z M2054.09,708.49c-0.6-0.7-1.11-1.53-1.5-2.52
			C2052.98,706.96,2053.49,707.79,2054.09,708.49z M2055.87,710.05c0.38,0.25,0.78,0.49,1.2,0.69c0.59,0.29,1.21,0.52,1.86,0.73
			c-0.65-0.21-1.27-0.44-1.86-0.73C2056.65,710.54,2056.25,710.3,2055.87,710.05z M2061.11,712.03c0.67,0.14,1.36,0.25,2.06,0.36
			C2062.47,712.28,2061.78,712.16,2061.11,712.03z M2064.99,712.62c1.33,0.16,2.68,0.31,4.02,0.5c1.95,0.27,3.85,0.64,5.59,1.27
			c-0.84,1.87-1.61,3.58-2.34,5.22c0.73-1.63,1.5-3.34,2.34-5.22c-1.74-0.63-3.64-1-5.59-1.27
			C2067.67,712.93,2066.32,712.79,2064.99,712.62z M2070.14,724.34c0.35-0.78,0.7-1.55,1.05-2.34
			C2070.83,722.79,2070.48,723.57,2070.14,724.34L2070.14,724.34z M911.98,723.84c0.15,0.02,0.3,0.03,0.45,0.05
			C912.29,723.87,912.13,723.86,911.98,723.84L911.98,723.84z M916.78,724.34c-0.35-0.78-0.7-1.55-1.05-2.34
			C916.09,722.79,916.43,723.57,916.78,724.34L916.78,724.34z M912.32,714.39c0.55,1.23,1.06,2.37,1.56,3.48
			C913.38,716.76,912.87,715.62,912.32,714.39z M884.31,760.39c-0.02-0.04-0.04-0.07-0.06-0.11l0,0
			C884.27,760.32,884.29,760.35,884.31,760.39z M919.07,529.68c3.52-0.72,6.07-2.25,7.51-3.27c-8.8,13.72-17.61,27.44-26.41,41.16
			c-1.15-5.2-0.53-8.94,0.17-11.29c2.58-8.67,9.96-11.12,10.75-18.7c0.38-3.61-0.92-6.66-1.84-8.38
			C911.02,529.74,914.64,530.59,919.07,529.68z M871.91,712.64L871.91,712.64L871.91,712.64c-0.95-2.15-1.85-4.32-2.78-6.47
			C870.05,708.33,870.96,710.5,871.91,712.64z M854.86,656.88c-0.26,1.8-0.57,3.57-0.99,5.32
			C854.28,660.45,854.6,658.68,854.86,656.88z M855.96,645.64c-0.16,1.96-0.31,3.86-0.48,5.73
			C855.65,649.5,855.8,647.59,855.96,645.64z M844.19,632.97c0.01,0.42-0.01,0.84-0.08,1.27
			C844.18,633.81,844.21,633.39,844.19,632.97z M844.04,631.72c-0.09-0.41-0.21-0.82-0.35-1.23
			C843.84,630.9,843.96,631.31,844.04,631.72z M843.76,635.52c-0.25,0.65-0.61,1.3-1.1,1.97
			C843.16,636.82,843.52,636.17,843.76,635.52z M854.45,677.06c-0.43-1.4-0.79-2.82-1.02-4.29
			C853.66,674.24,854.02,675.66,854.45,677.06z M856.96,683.29c0.91,1.87,1.92,3.71,2.98,5.54
			C858.88,687,857.87,685.16,856.96,683.29z M1054.13,743.16c-4.63,0.33-9.29,0.18-13.94,0.25c-14.95,1.61-29.89,3.21-44.84,4.82
			c0.13,1.68,0.27,3.36,0.4,5.05c4.31,0.38,8.63,0.76,12.94,1.15c-0.02,0.89-0.04,1.79-0.07,2.68c-9.67,3.42-19.29,6.97-29.03,10.19
			c-2.49,0.82-5.33,0.62-8.01,0.89c0.01-0.01,0.01-0.03,0.02-0.04l-0.03,0.04c7.99-16.34,15.98-32.67,23.96-49.01l0,0
			c0.64-1.73,1.27-3.47,1.91-5.2c-0.87-0.67-1.75-1.34-2.62-2.01c-0.65,1.5-1.3,3-1.95,4.5c-7.24,6.44-14.49,12.88-20.97,18.64
			c1.98-13.26,36.44-47.49,59.75-58.32c3.81-1.03,7.63-2.06,11.44-3.08c0,0-0.03,0.07-0.06,0.14l0.06-0.14
			c-3.62,2.62-7.25,5.24-10.87,7.86c-14.68,9.92-23.38,23.61-27.79,43.99c8.05-3.64,21.59-8.54,38.97-9.14
			c20.5-0.71,36.42,4.9,44.95,8.62c-2.74-0.14-5.54-0.24-8.39-0.27c-12.72-0.16-24.62,0.83-35.6,2.52
			c-16.46,0.68-33.35-1.51-48.25,9.72c17.15-2.01,34.3-4.01,51.45-6.02c-0.09-0.64-0.19-1.28-0.28-1.92
			c2.15,0.12,4.33,0.26,6.58,0.48c17.19,1.65,31.72,5.89,43.01,10.3C1082.63,740.96,1068.38,742.15,1054.13,743.16z M1653.72,824.08
			c1.72-14.45,2.63-28.08,2.98-40.73c0.52,4.36,1.04,8.72,1.56,13.07c0.94,18.58-0.69,36.8-8.49,54.16
			C1651.27,842.2,1652.62,833.35,1653.72,824.08z M1576.9,1046.01c16.54,7.96,20.58,20.35,11.18,31.86
			c-1.01-5.89-2.04-11.93-2.98-17.45c-5.21,10.3-9.85,19.49-15.13,29.93C1562.66,1074.09,1569.87,1060.73,1576.9,1046.01z
			 M1410.02,1046.01c7.03,14.72,14.24,28.07,6.92,44.34c-5.28-10.45-9.92-19.63-15.13-29.93c-0.94,5.53-1.98,11.57-2.98,17.45
			C1389.44,1066.36,1393.47,1053.97,1410.02,1046.01z M1328.66,796.42c0.52-4.36,1.04-8.72,1.56-13.07
			c0.35,12.65,1.26,26.28,2.98,40.73c1.1,9.28,2.45,18.12,3.96,26.5C1329.35,833.21,1327.72,814.99,1328.66,796.42z M1317.3,838.38
			c6.41,11.87,13.04,22.42,19.48,31.67c1.85-4.06,3.7-8.12,5.55-12.18c2.1,11.58,6.15,26.65,14.33,42.83
			c4.55,8.99,9.49,16.59,14.15,22.84c-1.27-0.94-2.54-1.87-3.8-2.81c-3.6-2.36-9.16-6.66-14-13.69c-5.53-8.03-7.49-15.82-8.27-20.26
			c-2.18,4.03-4.36,8.05-6.54,12.08c-8.76-16.98-17.62-36.34-25.77-58.03c-6.51-17.31-11.68-33.76-15.83-49.04
			C1301.59,805.83,1308.27,821.65,1317.3,838.38z M1326.57,925.84c-6.49-16.98-12.99-33.97-19.48-50.95
			c5.1,8.69,8.93,16.2,11.61,21.75c6.29,13.05,14.52,30.39,19.17,53.76c1.36,6.85,2.09,12.57,2.5,16.45
			C1335.76,953.18,1331.16,939.51,1326.57,925.84z M1349.7,995.87c-3.29-0.66-5.38-2.5-6.55-3.56c-1.33-1.2-4.06-4.04-7.59-16.19
			c-1.37-4.74-2.74-10.45-2.37-10.56c0.32-0.1,1.54,4.22,4.4,10.42c3.53,7.67,5.59,12.01,10.01,15.18c1.79,1.29,5,3.11,10.01,3.72
			C1356.35,995.45,1353.34,996.6,1349.7,995.87z M1351.39,976.93l-6.14-10.99c0,0,20.53-1.32,34.75-2.23
			c-4.07-5.58-6.48-8.9-8.89-12.21c-8.02-1.58-14.86-5.92-19.77-12.39c-8.21-10.81-8.35-22.3-8.21-25.17
			c1.4,4.71,4.31,12.34,10.49,20.07c6.3,7.88,13.24,12.4,17.55,14.77c4.19,0.3,8.38,0.61,12.22,0.89c2.84,5.4,5.46,10.38,9.76,18.55
			c-4.93,0.42-10.44,0.65-15.86,1.43c-1.75,0.25-2.14,0.68-7.9,2.73C1355.12,977.47,1351.39,976.93,1351.39,976.93z
			 M1388.67,1324.21L1388.67,1324.21c-11.08-22.36-21.42-44.87-13.38-71.04c2.71,7.02,5.42,14.04,8.12,21.07l1.64,5.71
			c1.72,3.73-2.11,13.64,8.61,7.33c0,0,0,0,0-0.01c0.02-0.01,0.22-0.04,0.22-0.04c4.56,3.07,12.99,6.04,13.06,9.21
			c0.53,22.02-0.68,44.08-1.33,66.13C1399.97,1349.78,1394.32,1336.99,1388.67,1324.21z M1415.62,1241.15
			c-5.31-8.93-12.36-17.96-0.53-28.18c3.61-3.12,3.74-10.11,5.31-15.38c1.04-3.48,1.62-7.09,2.71-10.55
			c2.56-8.14,5.31-16.23,7.98-24.34c-1.43-0.51-2.85-1.02-4.28-1.53c-1.32,1.55-2.63,3.1-4.65,5.48
			c-8.57-12.52,2.32-33.91-18.45-40.47c0.82,2.03,2.31,6.53,1.45,12.18c-1.17,7.68-5.91,12.32-7.4,13.68
			c-1.05,3.4-3.16,6.52-2.64,9.14c2.52,12.63-4.88,18.25-15.45,20.97c-6.76,1.74-13.15,2.06-19.3,0.87
			c-13.24-2.57-21.69-10.77-24.98-14.38c2.75,2.14,6.25,4.45,10.51,6.49c2.24,1.07,4.38,1.92,6.36,2.59
			c-4.99-9.09-12.15-24.86-14.47-45.77c-2.14-19.32,0.72-35.15,3.27-44.9c-2.01,1.26-4.23,2.85-6.52,4.85
			c-3.23,2.82-5.7,5.67-7.55,8.13c3.09-7.18,4.3-17.21,9.84-20.68c5.04-3.17,15.54-0.85,22.23,2.08c6.04,2.64,10.9,8.89,15.04,14.43
			c4.94,6.61,10.65,12.03,17.1,16.27c6.02,3.96,6.81,2.64,23.62,9.66c16.41,6.85,18.97,9.48,20.36,11.13
			c4.78,5.67,6.99,13.07,8.25,17.3c1.05,3.52,1.53,6.25,2.3,10.76c1.26,7.35,1.85,13.53,2.16,17.98c0.53-1.6,1.03-3.28,1.49-5.04
			c1.6-6.12,2.36-11.82,2.64-16.86c17.45,35.53-8.01,68.27-5.03,102.85c-1.55,0.21-3.09,0.43-4.64,0.64
			c-0.56-2.19-1.12-4.38-1.68-6.57c-0.7-3.96-1.38-6.06-1.96-7.66c-0.45-1.75-0.9-3.5-1.35-5.25c-1.14-11.36,7.25-13.63,7.99-28.2
			c0.2-3.96-0.4-4.04-0.43-13.52c-0.01-5.86,0.2-10.67,0.4-13.88c-8.55,3.15-12.65,7.56-14.81,11.14
			c-2.14,3.54-3.75,10.38-6.97,24.06c-0.43,1.84-1.37,5.86-4.27,10.11c-1.55,2.27-3.17,3.88-4.27,4.86
			c6.38-3.55,12.75-7.09,19.13-10.64c-1.18,5.84-2.36,11.68-3.54,17.53l0,0C1425.63,1249.61,1420.12,1248.74,1415.62,1241.15z
			 M1431.45,1413.75c-0.04-0.29-0.04-0.62,0-0.97C1431.41,1413.13,1431.41,1413.46,1431.45,1413.75c0.1,0.73,0.47,1.28,1.14,1.67
			C1431.92,1415.02,1431.56,1414.48,1431.45,1413.75z M1433.54,1415.83c0.37,0.11,0.79,0.21,1.27,0.28
			C1434.33,1416.03,1433.91,1415.94,1433.54,1415.83z M1436.4,1416.28c0.88,0.06,1.9,0.08,3.05,0.08
			C1438.3,1416.36,1437.29,1416.33,1436.4,1416.28z M1547.46,1416.35c1.54,0.01,2.83-0.04,3.89-0.15
			C1550.29,1416.32,1549,1416.36,1547.46,1416.35z M1555.24,1411.61c0.5,1.9,0.29,3.1-0.92,3.81c-0.27,0.16-0.58,0.29-0.95,0.41
			s-0.79,0.21-1.27,0.28c0.48-0.07,0.9-0.17,1.27-0.28s0.69-0.25,0.95-0.41C1555.53,1414.71,1555.74,1413.52,1555.24,1411.61
			c-0.44-1.69-1.45-3.95-2.83-6.93c-2.59-3.62-5.17-7.23-7.76-10.85c-0.02-5.57-0.05-11.14-0.07-16.71c0-2.15,0-4.3,0-6.08
			c-5.31,1.36-9.9,2.54-14.49,3.71l0,0c-2.28-3.86-4.56-7.72-8.98-15.19c-4.25,9.36-7.37,16.24-10.5,23.12
			c-1.01,13.04-2.02,26.08-3.04,39.13c1.34,0.21,2.69,0.41,4.03,0.62c5.22-12.23,10.45-24.46,15.67-36.69
			c1.03,0.66,2.06,1.31,3.09,1.97c1.45,2.35,2.89,4.7,4.34,7.05l0.02,0.11c1.34,7.07,2.68,14.13,4.02,21.2l0,0
			c-3.66,23.23-6.59,46.6-11.48,69.58c-1.22,5.72-8.77,10.16-13.42,15.19c-3.03-6.06-8.17-11.95-8.7-18.21
			c-1.48-17.51-0.92-35.17-1.42-52.77c-0.71-24.68-1.65-49.34-2.49-74.02c-1.12-0.22-2.24-0.43-3.36-0.65
			c-1.44,3.14-2.88,6.3-4.41,9.64c-1.53-3.34-2.98-6.49-4.41-9.64c-1.12,0.22-2.24,0.43-3.36,0.65
			c-0.84,24.67-1.79,49.34-2.49,74.02c-0.5,17.6,0.06,35.26-1.42,52.77c-0.53,6.26-5.66,12.15-8.7,18.21
			c-4.64-5.03-12.2-9.47-13.42-15.19c-4.89-22.98-7.82-46.35-11.48-69.58l0,0c1.34-7.07,2.68-14.13,4.02-21.2l0.02-0.11
			c1.45-2.35,2.89-4.7,4.34-7.05c1.03-0.66,2.06-1.31,3.09-1.97c5.22,12.23,10.45,24.46,15.67,36.69c1.34-0.21,2.69-0.41,4.03-0.62
			c-1.01-13.04-2.02-26.08-3.04-39.13c-3.12-6.88-6.25-13.76-10.5-23.12c-4.42,7.47-6.7,11.33-8.98,15.19l0,0
			c-4.59-1.18-9.19-2.35-14.49-3.71c0,1.78,0,3.93,0,6.08c-0.02,5.57-0.05,11.14-0.07,16.71c-2.59,3.62-5.17,7.23-7.76,10.85
			c-11.08-30.39-9.04-60.92-0.26-91.28c3.02-10.44,5.23-10.83,15.73-7.02c4.54-12.7-6.88-27.52,6.11-41.14
			c-0.21,15.31-0.11,28.61,0.09,39.45c0.32,17.27,0.88,26.98,2.39,38.3c0.58,4.32,1.16,7.9,1.59,10.36
			c1.49-3.55,8.52-19.89,14.61-19c0.99,0.14,2.64,1.32,5.88,3.68c3.14,2.27,5.62,4.26,7.26,5.61c0.17-25.05,0.34-50.09,0.5-75.13
			c-0.43-17.32-0.85-34.64-1.28-51.95l0,0c-0.01-11.52-0.02-23.04-0.03-34.56l-0.01-4.37l0,0c0.01-8.7,0.03-17.4,0.04-26.1
			l0.02-12.83c-0.16-0.09-0.3-0.17-0.46-0.26c0.15,0.09,0.3,0.17,0.46,0.26c0.1-3.05,0.2-6.09,0.29-9.14l0,0l1.08,0.34
			c-0.26-4.13-0.51-8.26-0.83-13.34c-3.41-0.32-6.77-0.64-12.48-1.18c15.88-8.34,12.64-21.73,12.14-33.68
			c-0.78-18.63-2.98-37.2-4.53-55.81c-0.37-4.42-0.54-8.86-0.95-15.7c6.73,2.49,11.39,2.25,14.46,1.5c1.6-0.39,4.72-1.37,8.67-0.8
			c-0.38,6.44-0.55,10.74-0.91,15.01c-1.55,18.6-3.75,37.18-4.53,55.81c-0.5,11.95-3.74,25.34,12.14,33.68
			c-5.71,0.54-9.07,0.86-12.48,1.18c-0.31,5.09-0.57,9.21-0.83,13.34l1.08-0.34c0.1,3.05,0.2,6.1,0.3,9.14
			c0.16-0.09,0.3-0.17,0.46-0.26c-0.15,0.09-0.3,0.17-0.46,0.26l0.02,12.83c0.96,1.09,1.8,2.17,2.52,3.26s1.31,2.17,1.79,3.26
			c0.42,0.97,0.74,1.94,0.97,2.91c-0.23-0.97-0.54-1.94-0.97-2.91c-0.47-1.09-1.07-2.17-1.79-3.26c-0.72-1.09-1.56-2.17-2.52-3.26
			c0.01,8.7,0.03,17.4,0.04,26.1c4.6-5.36,6.43-10.71,5.37-16.06c1.06,5.35-0.77,10.7-5.37,16.06l-0.01,4.37
			c-0.01,11.52-0.02,23.04-0.03,34.56c1.41-2.16,2.56-4.32,3.44-6.48c1.47-3.6,2.21-7.2,2.21-10.8c0,3.6-0.74,7.2-2.21,10.8
			c-0.88,2.16-2.03,4.32-3.44,6.48c-0.43,17.32-0.85,34.64-1.28,51.95c0.17,25.04,0.34,50.09,0.5,75.13
			c1.64-1.35,4.12-3.34,7.26-5.61c3.25-2.35,4.89-3.53,5.88-3.68c6.09-0.89,13.12,15.45,14.61,19c0.43-2.46,1.01-6.03,1.59-10.36
			c1.51-11.31,2.07-21.03,2.39-38.3c0.2-10.83,0.3-24.14,0.09-39.45c12.99,13.62,1.57,28.45,6.11,41.14
			c10.5-3.81,12.71-3.42,15.73,7.02c8.79,30.36,10.82,60.89-0.26,91.28C1553.79,1407.67,1554.8,1409.92,1555.24,1411.61z
			 M1527.41,1382.76l-0.06-0.08l0,0L1527.41,1382.76L1527.41,1382.76z M1459.52,1382.74c-0.01,0.01-0.02,0.03-0.02,0.03l0,0
			C1459.51,1382.76,1459.52,1382.75,1459.52,1382.74z M1484.36,1136.88c-0.25-0.2-0.47-0.4-0.67-0.59
			C1483.89,1136.48,1484.11,1136.68,1484.36,1136.88z M1483.64,1136.23c-0.37-0.38-0.67-0.75-0.87-1.12
			C1482.97,1135.49,1483.27,1135.86,1483.64,1136.23z M1481.47,1199.26c0,0.72,0.03,1.44,0.09,2.16
			C1481.5,1200.7,1481.47,1199.98,1481.47,1199.26z M1484.96,1174.83c0.56,0.83,1.18,1.65,1.88,2.48
			C1486.14,1176.48,1485.52,1175.65,1484.96,1174.83z M1482.61,1170.45c0.19,0.48,0.4,0.95,0.63,1.43
			C1483.01,1171.41,1482.8,1170.93,1482.61,1170.45z M1481.74,1167.54c0.05,0.24,0.11,0.48,0.17,0.73
			C1481.85,1168.03,1481.79,1167.78,1481.74,1167.54z M1504.39,1134.54c0.11-0.38,0.13-0.77,0.04-1.15
			C1504.52,1133.77,1504.51,1134.15,1504.39,1134.54c-0.23,0.77-0.85,1.55-1.83,2.34
			C1503.54,1136.09,1504.16,1135.31,1504.39,1134.54z M1503.31,1131.71c0.33,0.29,0.57,0.59,0.76,0.89
			C1503.88,1132.3,1503.64,1132,1503.31,1131.71z M1505.33,1196.87c-0.17-1.92-0.56-3.84-1.15-5.76
			C1504.77,1193.02,1505.16,1194.95,1505.33,1196.87z M1503.75,1189.82c-0.3-0.85-0.65-1.7-1.03-2.55
			C1503.1,1188.12,1503.45,1188.97,1503.75,1189.82z M1599.01,1326.62c0.8,2.52,1.59,5.04,2.39,7.57l0,0
			C1600.6,1331.66,1599.8,1329.14,1599.01,1326.62z M1598.24,1324.21L1598.24,1324.21c-5.65,12.78-11.29,25.57-16.94,38.35
			c-0.65-22.05-1.85-44.11-1.33-66.13c0.08-3.17,8.5-6.14,13.06-9.21c0,0,0.2,0.03,0.22,0.04c0,0,0,0,0,0.01
			c10.71,6.31,6.89-3.6,8.61-7.33l1.64-5.71c2.71-7.02,5.42-14.04,8.12-21.07C1619.66,1279.34,1609.33,1301.85,1598.24,1324.21z
			 M1627.84,1081.44c6.7-2.93,17.19-5.25,22.23-2.08c5.54,3.48,6.75,13.51,9.84,20.68c-1.84-2.46-4.31-5.31-7.55-8.13
			c-2.29-1.99-4.51-3.58-6.52-4.85c2.55,9.75,5.42,25.58,3.27,44.9c-2.32,20.91-9.48,36.68-14.47,45.77
			c1.98-0.67,4.12-1.52,6.36-2.59c4.26-2.04,7.76-4.36,10.51-6.49c-3.29,3.61-11.73,11.82-24.98,14.38
			c-6.15,1.19-12.54,0.87-19.3-0.87c-10.57-2.72-17.97-8.35-15.45-20.97c0.52-2.62-1.58-5.74-2.64-9.14
			c-1.5-1.36-6.23-6.01-7.4-13.68c-0.86-5.65,0.63-10.14,1.45-12.18c-20.77,6.56-9.88,27.95-18.45,40.47
			c-2.02-2.38-3.34-3.93-4.65-5.48c-1.43,0.51-2.85,1.02-4.28,1.53c2.67,8.11,5.42,16.2,7.98,24.34c1.09,3.46,1.67,7.07,2.71,10.55
			c1.57,5.26,1.71,12.26,5.31,15.38c11.83,10.22,4.78,19.25-0.53,28.18c-4.51,7.58-10.01,8.45-14.98,1.37l0,0
			c-1.18-5.84-2.36-11.68-3.54-17.53c6.38,3.55,12.75,7.09,19.13,10.64c-1.1-0.98-2.72-2.59-4.27-4.86
			c-2.91-4.25-3.84-8.27-4.27-10.11c-3.22-13.68-4.84-20.52-6.97-24.06c-2.16-3.58-6.26-7.99-14.81-11.14
			c0.19,3.22,0.41,8.03,0.4,13.88c-0.02,9.48-0.63,9.57-0.43,13.52c0.74,14.58,9.12,16.84,7.99,28.2c-0.45,1.75-0.9,3.5-1.35,5.25
			c-0.58,1.6-1.27,3.69-1.96,7.66c-0.56,2.19-1.12,4.38-1.68,6.57c-1.55-0.21-3.09-0.43-4.64-0.64
			c2.98-34.59-22.48-67.32-5.03-102.85c0.28,5.04,1.04,10.74,2.64,16.86c0.46,1.76,0.96,3.44,1.49,5.04
			c0.31-4.45,0.91-10.64,2.16-17.98c0.77-4.51,1.25-7.24,2.3-10.76c1.26-4.24,3.47-11.63,8.25-17.3c1.39-1.65,3.95-4.28,20.36-11.13
			c16.81-7.01,17.6-5.7,23.62-9.66c6.45-4.24,12.16-9.66,17.1-16.27C1616.94,1090.33,1621.8,1084.08,1627.84,1081.44z
			 M1617.52,972.38c-5.76-2.05-6.15-2.48-7.9-2.73c-5.42-0.78-10.93-1.02-15.86-1.43c4.3-8.17,6.92-13.15,9.76-18.55
			c3.84-0.28,8.03-0.58,12.22-0.89c4.31-2.37,11.25-6.89,17.55-14.77c6.19-7.73,9.09-15.37,10.49-20.07
			c0.14,2.86,0,14.36-8.21,25.17c-4.91,6.47-11.75,10.81-19.77,12.39c-2.41,3.31-4.82,6.63-8.89,12.21
			c14.22,0.91,34.75,2.23,34.75,2.23l-6.14,10.99C1635.53,976.93,1631.79,977.47,1617.52,972.38z M1651.36,976.11
			c-3.52,12.16-6.26,14.99-7.59,16.19c-1.17,1.06-3.26,2.9-6.55,3.56c-3.64,0.73-6.65-0.41-7.92-0.99
			c5.02-0.61,8.22-2.43,10.01-3.72c4.42-3.17,6.48-7.51,10.01-15.18c2.85-6.2,4.07-10.52,4.4-10.42
			C1654.09,965.67,1652.73,971.37,1651.36,976.11z M1660.35,925.84c-4.6,13.67-9.2,27.34-13.8,41.01c0.41-3.87,1.14-9.6,2.5-16.45
			c4.65-23.37,12.88-40.71,19.17-53.76c2.68-5.56,6.51-13.06,11.61-21.75C1673.34,891.88,1666.84,908.86,1660.35,925.84z
			 M1674.49,840.83c-8.15,21.68-17.01,41.05-25.77,58.03c-2.18-4.03-4.36-8.05-6.54-12.08c-0.78,4.44-2.74,12.23-8.27,20.26
			c-4.84,7.03-10.4,11.33-14,13.69c-1.27,0.94-2.54,1.87-3.8,2.81c4.67-6.25,9.61-13.85,14.15-22.84
			c8.18-16.19,12.23-31.25,14.33-42.83c1.85,4.06,3.7,8.12,5.55,12.18c6.44-9.26,13.07-19.81,19.48-31.67
			c9.03-16.73,15.71-32.55,20.7-46.59C1686.17,807.07,1680.99,823.52,1674.49,840.83z M2007.32,767.3
			c-9.74-3.22-19.36-6.76-29.03-10.19c-1.15-0.58-2.3-1.17-3.45-1.75c1.15,0.58,2.3,1.17,3.45,1.75c-0.02-0.89-0.04-1.79-0.06-2.68
			c4.31-0.38,8.63-0.76,12.94-1.15c0.13-1.68,0.27-3.36,0.4-5.05c-14.95-1.61-29.89-3.21-44.84-4.82
			c-4.65-0.07-9.31,0.08-13.94-0.25c-14.25-1.01-28.5-2.2-42.74-3.33c11.29-4.41,25.82-8.65,43.01-10.3
			c2.25-0.22,4.43-0.36,6.58-0.48c-0.09,0.64-0.19,1.28-0.28,1.92c17.15,2.01,34.3,4.01,51.45,6.02
			c-14.9-11.23-31.79-9.04-48.25-9.72c-10.98-1.69-22.89-2.68-35.6-2.52c-2.85,0.04-5.64,0.13-8.39,0.27
			c8.53-3.73,24.45-9.33,44.95-8.62c17.38,0.6,30.91,5.49,38.97,9.14c-4.41-20.38-13.11-34.07-27.79-43.99
			c-3.62-2.62-7.25-5.24-10.87-7.86l0.06,0.14c-0.03-0.07-0.06-0.14-0.06-0.14c3.81,1.03,7.63,2.05,11.44,3.08
			c23.31,10.83,57.77,45.06,59.75,58.32c-6.48-5.76-13.72-12.2-20.97-18.64c-0.89,0.9-1.77,1.81-2.66,2.71
			c7.99,16.34,15.98,32.67,23.96,49.01c0,0-0.01-0.02-0.02-0.03l-0.01-0.01l0,0l0,0c0.01,0.01,0.01,0.03,0.02,0.04l0,0
			c0.31,0.64,0.62,1.28,0.94,1.92c-0.31-0.64-0.62-1.28-0.94-1.92C2012.64,767.92,2009.8,768.12,2007.32,767.3z M2133.05,662.19
			c-0.24-1-0.43-2-0.61-3.02C2132.61,660.19,2132.81,661.2,2133.05,662.19z M2121.83,571.13c0.98-0.29,1.85-0.55,2.66-0.79
			C2123.68,570.58,2122.8,570.84,2121.83,571.13c-0.98,0.29-2.06,0.61-3.28,0.97C2119.77,571.74,2120.85,571.42,2121.83,571.13z
			 M2060.34,526.41c1.44,1.02,3.99,2.55,7.51,3.27c4.42,0.91,8.04,0.06,9.82-0.48c-0.91,1.73-2.21,4.77-1.83,8.38
			c0.79,7.57,8.17,10.03,10.75,18.7c0.7,2.36,1.32,6.1,0.17,11.29C2077.95,553.85,2069.15,540.13,2060.34,526.41z M2102.6,760.4
			c0.02-0.04,0.04-0.08,0.06-0.11l0,0C2102.64,760.32,2102.62,760.36,2102.6,760.4z M2137.55,643.08c1.35,0.65,2.57,1.24,3.71,1.79
			C2140.12,644.32,2138.9,643.73,2137.55,643.08z"/>
		<path class="st1" d="M2014.09,785.59c0.38-0.2,0.76-0.4,1.14-0.6c0,0-0.05-0.04-0.04-0.04
			C2014.82,785.16,2014.45,785.38,2014.09,785.59z"/>
		<path class="st1" d="M1736.65,799.88c-1.04-0.78-2.08-1.56-3.13-2.34c-0.26,1.37-0.52,2.74-0.77,4.11
			C1734.05,801.06,1735.35,800.47,1736.65,799.88z"/>
		<path class="st1" d="M1994.03,716.46c-0.65-1.5-1.3-3-1.95-4.5c-0.87,0.67-1.75,1.34-2.62,2.01c0.64,1.73,1.27,3.47,1.91,5.2
			C1992.26,718.27,1993.15,717.37,1994.03,716.46z"/>
		<path class="st1" d="M1593.91,1294.69L1593.91,1294.69c-19.82,5.55-7.12,19.76-6.9,30.89c3.51-9.24,7.03-18.48,10.54-27.71
			c-0.18-2.64-0.35-5.27-0.53-7.91C1595.98,1291.53,1594.95,1293.11,1593.91,1294.69z"/>
	</g>
	<path class="st1" d="M1286.82,1468.82c-11.06,25.64-10.25,44.42-7.97,56.09c0,0,1.11,5.69,14.36,41.6l0,0
		c-0.96-5.04-2.03-11.98-2.48-20.3c-0.58-10.65-1.1-20.35,1.73-31.45c0,0,1.38-5.42,14.86-31.45l0,0L1286.82,1468.82z"/>
	<path class="st1" d="M1676.75,1489.94c11.06,25.64,10.25,44.42,7.97,56.09c0,0-1.11,5.69-14.36,41.6l0,0
		c0.96-5.04,2.03-11.98,2.48-20.3c0.58-10.65,1.1-20.35-1.73-31.45c0,0-1.38-5.42-14.86-31.45l0,0L1676.75,1489.94z"/>
	<g>
		<path class="st2" d="M1933.12,1794.45l40.84,0.63c4,0.06,7.89,0.26,11.71,0.56c10.96-12.8,22.15-25.27,34.17-37.03
			c-26.17,5.44-49.21,18.52-72.87,30.05C1942.45,1790.86,1937.87,1792.9,1933.12,1794.45z"/>
		<path class="st2" d="M2058.47,1824.41c16.05-5.71,32.39-10.64,49.11-14.54c-20,0.89-39.79,3.2-59.45,6.36
			C2051.75,1818.75,2055.21,1821.46,2058.47,1824.41z"/>
		<path class="st2" d="M1844.59,1840.69c2.68,3.31,5.24,6.71,7.66,10.21l0.89-57.69l65.9,1.02c-1.79-1.88-2.37-4.98-1.47-9.09
			c2.42-11.02,8.21-20.37,15.34-28.83c17.05-20.23,38.41-34.26,63.31-43c1.59-0.56,3.14-1.02,4.75-0.15
			c11.37-5.98,23.62-9.6,36.87-13.34c-46.15-12.35-88.58,4.25-132.1,12.68c8.1-13.5,19.77-22.93,31.72-35.24
			c-11.79,3.14-21.41,6.44-32.36,6.78c16.89-31.12,41.94-52.85,71.43-71.05c-6.39,1.39-12.82,2.62-19.17,4.21
			c-6.64,1.66-13.2,3.67-19.79,5.52c-15.2,6.35-30.4,12.71-45.6,19.06c-0.38,0.22-0.75,0.45-1.13,0.67c0-0.58,0.01-1.17,0.01-1.75
			c0.44-1.24,0.88-2.48,1.32-3.72c-0.57-0.59-1.14-1.19-1.72-1.78c-4.34-1.63-2-5.07-1.64-7.49c5.7-38.77,18.4-75.45,33.65-111.35
			c9.87-23.22,21.96-45.38,32.9-68.08c0.57-1.18,0.08-4.64,3.31-2.34c1.81-4.56,3.61-9.11,5.42-13.67
			c-21.42,23.4-38.9,49.38-54.07,76.99c-25.03,45.54-41.12,94.54-56.2,143.98c-10.82,35.51-20.4,71.26-25.45,110.54
			c-6.24-18.16-10.69-34.4-14.2-50.91c-6.18-29.05-1.9-58.05,0.56-87.02c1.18-13.93,3.4-27.77,5.14-41.65l0,0
			c2.52-16.04,5.04-32.08,7.56-48.11c-0.68-0.12-1.37-0.23-2.05-0.35c-2.44,13.39-8.25,25.9-9.75,39.54
			c-19.8,70.7-35.76,142.39-54.41,213.39C1794.43,1796.27,1822.83,1813.89,1844.59,1840.69z"/>
	</g>
	<g>
		<path class="st3" d="M2039.86,1811c14.09-4.81,28.41-9,43.01-12.41c-19.05,0.85-37.92,2.99-56.67,5.93
			C2030.98,1806.4,2035.52,1808.57,2039.86,1811z"/>
		<path class="st3" d="M1843.97,1839.87c2.08-7.91,4.31-15.78,6.71-23.61c0.62-2.02,1.34-3.97,2.22-5.77l0.27-17.32l99.04,1.53
			c13.8-16.4,27.7-32.45,42.93-47.36c-26.17,5.44-49.21,18.52-72.87,30.05c-5.96,2.9-12,5.52-18.41,7.1
			c-8.46,2.09-12.83-2.16-10.98-10.62c2.42-11.02,8.21-20.37,15.34-28.83c17.05-20.23,38.41-34.26,63.31-43
			c1.59-0.56,3.14-1.02,4.75-0.15c11.37-5.98,23.62-9.6,36.87-13.34c-46.15-12.35-88.58,4.25-132.1,12.68
			c8.1-13.5,19.77-22.93,31.72-35.24c-11.79,3.14-21.41,6.44-32.36,6.78c16.89-31.12,41.94-52.85,71.43-71.05
			c-6.39,1.39-12.82,2.62-19.17,4.21c-6.64,1.66-13.2,3.67-19.79,5.52c-15.2,6.35-30.4,12.71-45.6,19.06
			c-0.38,0.22-0.75,0.45-1.13,0.67c0-0.58,0.01-1.17,0.01-1.75c0.44-1.24,0.88-2.48,1.32-3.72c-0.57-0.59-1.14-1.19-1.72-1.78
			c-4.34-1.63-2-5.07-1.64-7.49c5.7-38.77,18.4-75.45,33.65-111.35c9.87-23.22,21.96-45.38,32.9-68.08
			c0.57-1.18,0.08-4.64,3.31-2.34c1.81-4.56,3.61-9.11,5.42-13.67c-21.42,23.4-38.9,49.38-54.07,76.99
			c-25.03,45.54-41.12,94.54-56.2,143.98c-10.82,35.51-20.4,71.26-25.45,110.54c-6.24-18.16-10.69-34.4-14.2-50.91
			c-6.18-29.05-1.9-58.05,0.56-87.02c1.18-13.93,3.4-27.77,5.14-41.65l0,0c2.52-16.04,5.04-32.08,7.56-48.11
			c-0.68-0.12-1.37-0.23-2.05-0.35c-2.44,13.39-8.25,25.9-9.75,39.54c-20.48,73.15-36.86,147.35-56.35,220.75
			C1778.98,1787.69,1816.63,1806.63,1843.97,1839.87z"/>
	</g>
	<g>
		<path class="st2" d="M1030.9,1777.38c-23.66-11.53-46.7-24.6-72.87-30.05c10.57,10.34,20.49,21.23,30.19,32.41l49.49,0.76
			C1035.42,1779.53,1033.15,1778.48,1030.9,1777.38z"/>
		<path class="st2" d="M981.64,1702.03c24.9,8.75,46.26,22.78,63.31,43c7.13,8.46,12.92,17.81,15.34,28.83
			c0.62,2.83,0.53,5.18-0.17,6.99l83.82,1.3l-1.28,82.53h39.53l31.82-81.44l4.18,0.06c-19.32-72.93-35.61-146.64-55.96-219.31
			c-1.5-13.64-7.31-26.15-9.75-39.54c-0.68,0.12-1.37,0.23-2.05,0.35c2.52,16.04,5.04,32.08,7.56,48.11l0,0
			c1.75,13.88,3.96,27.72,5.14,41.65c2.46,28.97,6.74,57.98,0.56,87.02c-3.52,16.51-7.97,32.75-14.2,50.91
			c-5.05-39.29-14.63-75.04-25.45-110.54c-15.07-49.44-31.16-98.44-56.2-143.98c-15.18-27.61-32.66-53.59-54.07-76.99
			c1.81,4.56,3.61,9.11,5.42,13.67c3.24-2.3,2.74,1.16,3.31,2.34c10.94,22.71,23.03,44.86,32.9,68.08
			c15.26,35.9,27.96,72.58,33.65,111.35c0.35,2.42,2.69,5.86-1.64,7.49c-0.57,0.59-1.14,1.19-1.72,1.78
			c0.44,1.24,0.89,2.48,1.32,3.72c0,0.59,0,1.17,0.01,1.75c-0.38-0.22-0.75-0.45-1.13-0.67c-15.2-6.35-30.4-12.71-45.6-19.06
			c-6.59-1.86-13.15-3.86-19.79-5.52c-6.34-1.59-12.77-2.82-19.17-4.21c29.49,18.21,54.54,39.93,71.43,71.05
			c-10.95-0.35-20.57-3.65-32.36-6.78c11.96,12.32,23.62,21.75,31.72,35.24c-43.51-8.43-85.95-25.03-132.1-12.68
			c13.25,3.74,25.5,7.37,36.87,13.34C978.5,1701.01,980.05,1701.48,981.64,1702.03z"/>
	</g>
	<g>
		<path class="st3" d="M990.49,1765.05c-2.46-0.98-5.51-1.01-7.07-3.74c-4.94-1.42-9.87-2.85-16.77-4.84
			c8.8,8.38,16.9,15.89,24.63,23.33l29.15,0.45C1010.95,1774.27,1000.98,1769.21,990.49,1765.05z"/>
		<path class="st3" d="M1040.63,1760.53c2.17,2.07,4.24,4.23,6.36,6.35c6.98,4,13.52,8.49,19.01,14.08l77.87,1.2l-1.27,82.51h39.53
			l31.81-81.43l25.78,0.4c-15.94-59.92-30.13-120.3-46.41-180.13c-6.01-22.09-12.75-43.98-20.63-65.66
			c1.87,12.47,4.04,24.91,5.55,37.42c4.73,39.26,11.03,78.51,7.17,118.22c-2.08,21.37-9.21,41.63-17.19,61.68
			c-4.07-28.16-9.94-55.82-17.57-83.1c-14.43-51.58-29.03-103.1-52.25-151.67c-15.74-32.93-35.3-63.29-59.59-90.56
			c-3.5,3.22,0.14,5.51,1.29,7.82c10.43,20.82,23.15,40.44,32.47,61.85c15.45,35.5,27.97,72.03,38.54,109.24
			c0.48,1.7,1.76,3.54,0.28,5.6c-3.43,0.12-6.07-2.1-8.84-3.56c-15.02-7.88-30.98-12.37-47.83-13.94c-1.59-0.15-3.12-0.89-4.68-1.36
			c-12.62-0.1-25.25-0.32-40.37,2.34c42.14,11.78,76.51,30.52,93.24,72.99c-16.23-7.41-30.92-15.87-45.58-24.4
			c-6.54-3.81-12.67-8.51-20.28-10.2c2.97,6.09,8.86,9.51,13.21,14.34c14.95,16.61,28.71,34.04,38.63,54.19
			c3.27,6.65,6.05,13.57,5.98,21.24c-0.09,9.96-6.19,14.35-15.23,9.95c-9.6-4.67-17.92-11.42-25.2-19.32
			c-7.08-2.88-14.15-5.76-21.23-8.64c1.94,2.89,3.88,5.78,7.37,10.99c-24.65-6.05-46.91-13.08-70.23-14.09
			c-2.43,0.05-4.85,0.1-7.28,0.15c-0.49-0.05-0.98-0.1-1.48-0.14c0.16,0.42,0.32,0.84,0.47,1.27
			C990.61,1720.88,1017.29,1738.29,1040.63,1760.53z"/>
	</g>
	<path class="st3" d="M2190.06,1820.33c-2.63-4.59-4.99-9.38-7.79-13.87c-5.54-8.91-7.38-18.8-8.53-28.96
		c-0.86-7.65-1.34-15.43-9.18-20.01c-2.71-1.58-3.04-4.39-1.91-7.29c1.1-2.81,2.13-5.65,3.3-8.43c7.22-17.05,7.6-11.67-5.54-24.34
		c-7.86-7.58-17.22-13.63-26.1-20.1c-4.06-2.95-5.8-5.99-4.05-11.12c5.74-16.74,0.91-32.63-5.07-48.09
		c-2.83-7.32-9.71-12-15.89-16.36c-9.78-6.91-14.94-15.76-14.63-27.57c0.5-18.93-9.31-33.57-21.82-45.43
		c-15.75-14.94-25.71-31.84-30.34-53.02c-5.18-23.65-19.73-41.95-37.83-57.54c-6.24-5.38-12.3-10.98-18.61-16.28
		c-3.5-2.94-5.78-6.42-7.11-10.79c-4.86-16.02-10.1-31.93-14.7-48.03c-1.31-4.57-4.78-5.67-8-7.51
		c-43.85-25.07-90.32-43.98-138.45-59.05c-12.54-3.93-12.45-4.27-6.85-15.71c17.88-36.51,37.16-72.33,53.02-109.82
		c2.76-6.52,3.41-11.56-2.25-16.83c-3.64-3.38-5.73-8.05-5.19-13.4c-1.41-0.57-2.81-1.14-4.15-1.68
		c-2.02,8.87-3.46,17.57-6.06,25.89c-2.61,8.35-5.99,16.52-9.72,24.45c-38.28,81.46-84.14,158.43-137.43,230.97
		c-13.86,18.87-28.57,36.92-48.31,50.17c-11.39,7.64-22.85,15.21-33.81,23.44c-20.14,15.12-41.27,29.14-57.44,48.93
		c-5.05,9.34-7.45,19.36-7.57,29.94c-0.19,17.03-0.38,34.05-0.57,51.08c0.07,11.54,0.21,23.08,0.19,34.61
		c-0.08,43.41-0.19,86.82-0.3,130.24l12.65,0.2c0.04-2.25,0.08-4.5,0.12-6.76c0.96-61,2.75-121.97,5.76-182.9
		c0.5-10.12,1.33-20.27,2.89-30.26c0.61-3.87,2.15-7.5,5.26-9.45c0,0,2.46-1.56,6.05-1.49c6.28,0.13,23.82,7.64,34.18,25.49
		c18.6,32.06-0.68,72.12,3.9,73.54c3.59,1.12,16.96-22.96,27.16-57.75c13.09-44.68,3.82-48.56,13.52-75.96
		c16.5-46.65,45.04-40.14,72.5-98.66c8.19-17.46,15.86-25.86,24.23-53.94c5.43-18.21,15.57-32.99,28.77-46.11
		c9.04-15.94,9.04-15.94,25.9-10.15c1.82,0.62,3.62,1.29,5.46,1.86c43.29,13.42,85.3,29.87,124.65,52.6
		c1.81,1.05,4.06,1.48,4.49,4.13c2.29,13.87,9.34,26.25,12.59,39.8c3.06,12.74,10.77,21.74,21.08,29.35
		c21.23,15.67,38.68,34.1,42.43,61.9c0.88,6.5,2.45,12.93,3.91,19.34c0.65,2.86,1.24,5.67,3.89,7.87c5.9,4.91,12.03,9.75,17,15.54
		c12.69,14.81,27.83,28.38,26.07,50.94c-0.61,7.85,0.69,15.97,7.16,22c5.81,5.41,11.12,11.44,17.34,16.31
		c12.2,9.55,14.99,21.55,11.19,35.92c-1.89,7.13-4.09,14.24-3.78,21.78c0.11,2.74,0.41,5.09,3.1,6.98
		c10.74,7.57,21.3,15.4,31.88,23.2c7.41,5.46,7.54,7.66,1.33,15.22c-14.83-5.89-30.11-5.72-45.64-4.23
		c8.13,3.25,16.45,5.49,23.95,10.1c10.38,6.38,19.32,14.4,28.41,22.37c3.68,3.23,5.06,6.49,5.28,11.24
		c0.52,11.24,1.07,23.09,7.91,32.29c11.12,14.94,18.92,31.36,25.47,48.51L2190.06,1820.33z"/>
	<path class="st3" d="M808.56,1753.04c1.14,2.9,0.8,5.71-1.91,7.29c-6.69,3.91-8.01,10.17-8.8,16.68l12.55,0.19
		c1.83,0.03,3.63,0.1,5.42,0.18c0.75-2.6,2.16-4.77,4.61-6.92c9.09-7.97,18.03-15.99,28.41-22.37c7.5-4.61,15.82-6.85,23.95-10.1
		c-15.53-1.49-30.8-1.67-45.64,4.23c-6.21-7.56-6.08-9.76,1.33-15.22c10.58-7.8,21.14-15.63,31.88-23.2c2.69-1.9,2.99-4.24,3.1-6.98
		c0.31-7.53-1.9-14.64-3.78-21.78c-3.8-14.37-1.01-26.36,11.19-35.92c6.22-4.87,11.53-10.9,17.34-16.31
		c6.47-6.03,7.78-14.15,7.16-22c-1.76-22.56,13.38-36.13,26.07-50.94c4.96-5.79,11.09-10.63,17-15.54c2.65-2.2,3.24-5.01,3.89-7.87
		c1.46-6.41,3.03-12.83,3.91-19.34c3.76-27.81,21.2-46.23,42.43-61.9c10.31-7.61,18.02-16.61,21.08-29.35
		c3.25-13.55,10.31-25.93,12.59-39.8c0.44-2.65,2.68-3.08,4.49-4.13c39.36-22.74,81.37-39.18,124.65-52.6
		c1.84-0.57,3.64-1.24,5.46-1.86c16.86-5.79,16.86-5.79,25.9,10.15c13.2,13.12,23.34,27.9,28.77,46.11
		c8.37,28.08,16.04,36.48,24.23,53.94c27.46,58.53,55.99,52.01,72.5,98.66c9.69,27.4,0.42,31.28,13.52,75.96
		c10.2,34.8,23.57,58.87,27.16,57.75c4.58-1.43-14.7-41.48,3.9-73.54c10.36-17.85,27.9-25.36,34.18-25.49
		c3.59-0.07,6.05,1.49,6.05,1.49c3.1,1.95,4.65,5.59,5.26,9.46c1.56,10,2.39,20.15,2.89,30.26c3.01,60.93,4.8,121.9,5.76,182.9
		c0.01,0.43,0.02,0.87,0.02,1.3l12.73,0.2c-0.1-41.72-0.21-83.45-0.28-125.18c-0.02-11.54,0.12-23.08,0.19-34.61
		c-0.19-17.03-0.38-34.05-0.57-51.08c-0.12-10.59-2.52-20.6-7.57-29.94c-16.17-19.8-37.3-33.81-57.44-48.93
		c-10.96-8.23-22.42-15.8-33.81-23.44c-19.74-13.25-34.45-31.29-48.31-50.17c-53.28-72.54-99.14-149.51-137.43-230.97
		c-3.73-7.93-7.11-16.1-9.72-24.45c-2.6-8.33-4.04-17.02-6.06-25.89c-1.34,0.54-2.75,1.11-4.15,1.68c0.55,5.35-1.55,10.01-5.19,13.4
		c-5.66,5.27-5.01,10.3-2.25,16.83c15.86,37.49,35.14,73.31,53.02,109.82c5.6,11.44,5.69,11.78-6.85,15.71
		c-48.13,15.07-94.6,33.97-138.45,59.05c-3.22,1.84-6.69,2.93-8,7.51c-4.6,16.1-9.84,32-14.7,48.03c-1.33,4.37-3.61,7.85-7.11,10.79
		c-6.31,5.3-12.36,10.9-18.61,16.28c-18.1,15.59-32.65,33.88-37.83,57.54c-4.63,21.18-14.59,38.08-30.34,53.02
		c-12.51,11.86-22.32,26.5-21.82,45.43c0.31,11.81-4.85,20.66-14.63,27.57c-6.18,4.36-13.06,9.04-15.89,16.36
		c-5.98,15.46-10.81,31.35-5.07,48.09c1.76,5.13,0.01,8.16-4.05,11.12c-8.88,6.47-18.25,12.52-26.1,20.1
		c-13.14,12.68-12.76,7.29-5.54,24.34C806.43,1747.38,807.46,1750.23,808.56,1753.04z"/>
	<g>
		<path class="st1" d="M884.8,1972.45c2.13-3.2,4.01-6.52,5.67-9.94c-7.17,9.61-16.11,17.78-26.69,24.38l3.31,4.98
			C874,1986.26,879.92,1979.77,884.8,1972.45z"/>
		<path class="st1" d="M693.64,1904.31v-10.77l-7.45-2.76c-33.28-12.34-58.94-18.59-76.27-18.59c-23.94,0-41.06,7.92-53.9,24.92
			c-3.03,4.01-5.7,8.48-8.04,13.35c14.25-18.63,33.87-27.7,59.97-27.7c18.28,0,44.88,6.42,79.05,19.09L693.64,1904.31z"/>
		<path class="st1" d="M801.97,1879.02h-9.75v10.57H800c26.75,0,39.8,7.32,46.17,15.7C845.79,1895.66,841.93,1879.02,801.97,1879.02
			z"/>
		<rect x="1015.36" y="1879.02" class="st1" width="96.18" height="10.57"/>
		<path class="st1" d="M608.71,2130.11c-43.26,0-77.38-14.05-101.41-41.77c-8.95-10.32-16.22-22.26-21.82-35.78
			c5.62,19.28,14.26,35.7,25.89,49.11c22.45,25.88,54.53,39.01,95.37,39.01c30.38,0,58.82-7.22,84.53-21.46l2.71-1.5v-8.4
			C667.89,2123.1,639.23,2130.11,608.71,2130.11z"/>
		<path class="st1" d="M1955.36,1879.02h-9.75v10.57h7.78c26.75,0,39.8,7.32,46.17,15.7
			C1999.18,1895.66,1995.33,1879.02,1955.36,1879.02z"/>
		<rect x="1363.55" y="1879.02" class="st1" width="84.3" height="10.57"/>
		<path class="st1" d="M857.47,2090.11l-51.73-82.41h-13.53v10.57h15.98l47.08,75.01C855.95,2092.17,856.68,2091.1,857.47,2090.11z"
			/>
		<rect x="1015.36" y="1995.33" class="st1" width="78.98" height="10.57"/>
		<polygon class="st1" points="1264.55,1925.51 1289.07,1992.03 1289.36,1992.03 1264.69,1925.11 		"/>
		<path class="st1" d="M1727.18,1872.18c-21.42,0-36.94,7.84-48.83,24.68c-2.5,3.54-4.75,7.41-6.75,11.57
			c13.16-17.27,30.73-25.68,53.61-25.68c23.91,0,42.02,9.18,55.37,28.06c3.36,4.76,6.31,10.02,8.84,15.76
			c-3.13-11.55-7.59-21.5-13.4-29.72C1764.11,1880.03,1748.6,1872.18,1727.18,1872.18z"/>
		<path class="st1" d="M2038.19,1972.45c2.13-3.2,4.01-6.52,5.68-9.94c-7.17,9.61-16.11,17.78-26.69,24.38l3.31,4.98
			C2027.4,1986.26,2033.32,1979.77,2038.19,1972.45z"/>
		<rect x="1889.84" y="2123.28" class="st1" width="45.8" height="10.57"/>
		<path class="st1" d="M2019.36,2110.21c0.27-1.64,0.72-3.12,1.29-4.51l-61.51-98h-13.53v10.57h15.98l57.76,92.02
			C2019.35,2110.26,2019.35,2110.24,2019.36,2110.21z"/>
		<rect x="2295.87" y="1879.02" class="st1" width="84.3" height="10.57"/>
		<rect x="2386.19" y="2123.28" class="st1" width="46.15" height="10.57"/>
		<rect x="2442.31" y="1879.02" class="st1" width="80.35" height="10.57"/>
		<polygon class="st1" points="1143.73,2123.28 1139.83,2133.85 1184.09,2133.85 1188.03,2123.28 		"/>
		<path class="st1" d="M1823.7,2086.37c-24.1,29.02-56.58,43.74-96.52,43.74c-39.94,0-72.42-14.72-96.52-43.74
			c-9-10.84-16.3-23.09-21.9-36.68c5.62,19.21,14.32,35.98,26.08,50.14c22.51,27.1,52.91,40.85,90.36,40.85s67.85-13.74,90.36-40.85
			c5.7-6.86,10.68-14.34,14.94-22.4C1828.36,2080.51,1826.09,2083.49,1823.7,2086.37z"/>
		<path class="st1" d="M1043.25,2123.28c1.12,2.78,3.49,4.79,7.45,6.6c6.77,3.11,14.33,3.65,21.67,3.8
			c0.45,0.01,0.87,0.07,1.25,0.17h45.31v-10.57H1043.25z"/>
		<polygon class="st1" points="1337.42,2123.28 1309.75,2047.76 1219.72,2047.76 1215.79,2058.34 1313.37,2058.34 1341.03,2133.85 
			1390.75,2133.85 1386.9,2123.28 		"/>
		<rect x="1453.87" y="2123.28" class="st1" width="46.14" height="10.57"/>
		<rect x="1509.99" y="1879.02" class="st1" width="80.35" height="10.57"/>
	</g>
	<path class="st1" d="M998.84,1978.44h88.95v-39.36h-88.95v-76.95h106.15v-39.73h-152.3v262.88c0.45,0.11,0.9,0.22,1.34,0.35
		c10.95,3.14,17.18,11.61,22.18,18.4c0.58,0.79,1.17,1.59,1.76,2.36h134.41v-39.73H998.84V1978.44z"/>
	<path class="st1" d="M843.86,1975.29c14.41-7.45,25.96-17.62,34.39-30.3c9.58-14.41,14.44-31.05,14.44-49.46
		c0-23.6-7.18-41.95-21.34-54.54c-13.88-12.33-33.85-18.59-59.37-18.59H729.9v284h45.8v-115.58h25.95l61.5,97.97
		c0.07-0.11,0.13-0.23,0.21-0.34c5.3-8.17,15.9-12.44,28.35-11.41c0.99,0.08,1.92,0.19,2.84,0.32c10.42,1.5,18.81,8.94,25.75,18.13
		c0.52-1.11,1.09-2.02,1.6-2.73L843.86,1975.29z M830.19,1937.63c-10.65,8.92-26.73,13.45-47.78,13.45h-6.72v-88.95h17.75
		c52.24,0,52.24,27.92,52.24,37.09C845.68,1916.34,840.61,1928.9,830.19,1937.63z"/>
	<polygon class="st1" points="2289.32,1822.39 2289.32,1862.13 2379.64,1862.13 2379.64,2106.39 2425.79,2106.39 2425.79,1862.13 
		2516.11,1862.13 2516.11,1822.39 	"/>
	<path class="st1" d="M605.18,2072.2c-26.82,0-47.31-9.24-62.62-28.24c-15.29-18.96-23.04-45.55-23.04-79.01
		c0-35.12,7.27-62.56,21.59-81.55c14.27-18.91,33.99-28.1,60.28-28.1c18.28,0,44.88,6.42,79.05,19.09l6.64,2.46v-48.14l-3.82-1
		c-30.87-8.06-58.19-12.15-81.19-12.15c-41.28,0-73.79,13.21-96.64,39.26c-22.76,25.96-34.31,62.89-34.31,109.75
		c0,46.98,11.33,83.87,33.69,109.64c22.45,25.88,54.53,39.01,95.37,39.01c30.38,0,58.82-7.22,84.53-21.46l2.71-1.5v-45.5l-7.38,4.26
		C653.39,2064.4,628.2,2072.2,605.18,2072.2z"/>
	<rect x="2217.4" y="1822.39" class="st1" width="46.14" height="284"/>
	<path class="st1" d="M1809.02,1856.41c-22.51-27.1-52.91-40.85-90.36-40.85s-67.85,13.74-90.36,40.85
		c-22.36,26.92-33.7,63.25-33.7,107.98s11.34,81.06,33.7,107.98c22.51,27.1,52.91,40.85,90.36,40.85s67.85-13.74,90.36-40.85
		c22.36-26.93,33.7-63.26,33.7-107.98C1842.72,1919.67,1831.38,1883.34,1809.02,1856.41z M1774.02,2045.26
		c-13.34,19-31.45,28.23-55.36,28.23s-42.01-9.24-55.36-28.23c-13.49-19.2-20.32-46.53-20.32-81.23c0-34.45,6.84-61.59,20.32-80.67
		c13.34-18.88,31.45-28.06,55.37-28.06c23.91,0,42.02,9.18,55.37,28.06c13.48,19.08,20.32,46.22,20.32,80.67
		C1794.34,1998.72,1787.5,2026.05,1774.02,2045.26z"/>
	<path class="st1" d="M1280.85,1822.39h-42.61l-104.96,284h44.27l28.09-75.51h101.18l27.66,75.51h49.72L1280.85,1822.39z
		 M1219.96,1991.14l36.22-98.02l36.14,98.02H1219.96z"/>
	<polygon class="st1" points="1357,1862.13 1447.33,1862.13 1447.33,2106.39 1493.47,2106.39 1493.47,1862.13 1583.79,1862.13 
		1583.79,1822.39 1357,1822.39 	"/>
	<path class="st1" d="M845.2,2126.67c0.24-0.02,0.48-0.06,0.72-0.12c2.19-0.59,3.49-2.85,2.9-5.04c-0.16-0.6-0.35-1.18-0.56-1.75
		c-1.41,1.93-2.79,3.92-2.95,6.19C845.3,2126.19,845.25,2126.43,845.2,2126.67z"/>
	<path class="st1" d="M864.04,2216.69c-2.28-2.49-12.56-13.8-15.73-18.42c-3.57-5.2-5.95-16.19-7.01-21.54s-7.14-29.49-9.52-40.34
		c-1.9-8.65-0.02-15.81,0.83-18.36c0.05-0.1,0.09-0.19,0.14-0.29c1.08-2.06,2.5-3.88,3.61-5.92c0.09-0.16,0.18-0.3,0.27-0.44
		c-2.21-1.66-4.85-2.68-7.78-2.95c-1.03-0.09-2.12-0.09-3.25,0.02c-6.74,0.7-14.94,5.65-16.98,14.86c-0.21,0.92-0.35,1.86-0.42,2.8
		c-0.04,0.58-0.07,1.2-0.08,1.86c-0.25,13.07,4.79,44.68,8.13,65.6c4.03,25.27,13.19,38.42,28.01,40.21
		c0.79,0.09,1.59,0.14,2.38,0.14c5.53,0,11.03-2.25,15.71-6.48c1.96-1.77,4.69-4.43,6.12-6.62
		C867.12,2219.41,865.57,2218.1,864.04,2216.69z"/>
	<path class="st1" d="M930.6,2214.57c-2.17-1.59-30.03-21.97-36.28-26.14c-6.51-4.34-7.95-12.14-8.1-17.3
		c-0.14-5.15-9.54-26.22-14.31-35.52c-3.59-6.99-6.36-19.38-7.51-25.09c-0.06-0.38-0.11-0.77-0.14-1.16
		c-0.17-1.74-0.19-3.78,0.05-5.82c-3.53-0.18-7.14,0.48-10.74,2c-4.91,2.08-8.52,5.63-10.73,10.55c-0.92,2.05-1.58,4.31-1.97,6.71
		c-0.84,5.03-0.5,11.02,0.91,16.03c1.4,5,4.45,17.39,7.72,30.73l0.52,2.13c1.37,5.61,2.65,10.82,3.61,14.65
		c2.1,8.35,10.64,17.89,18.72,26.13c1.14,1.16,2.28,2.31,3.42,3.44c0.88,0.88,1.76,1.75,2.63,2.61l0.57,0.57
		c4.15,4.11,7.56,7.5,10.41,10.66c5.11,5.66,12.05,8.75,19.4,8.75c1.04,0,2.08-0.06,3.13-0.19c8.37-1,15.94-5.96,19.75-12.97
		c1.57-2.88,2.72-5.56,3.57-7.98C933.63,2216.56,932.1,2215.6,930.6,2214.57z"/>
	<path class="st1" d="M984.14,2183.83c-0.74-0.31-1.49-0.59-2.25-0.85v-0.01c-0.06-0.02-0.11-0.03-0.17-0.05
		c-0.97-0.33-1.94-0.63-2.92-0.89c-7.2-2.34-12.59-5.12-16.07-7.14c-8.62-5.01-14.7-10.66-41.85-51.43
		c-1.78-2.68-5.35-8.17-6.07-15.84c-0.19-2.05-0.13-3.74-0.06-4.79c0.13-0.51,0.26-1.02,0.42-1.53
		c-5.22-6.03-11.22-10.56-18.21-11.56c-0.76-0.11-1.54-0.2-2.36-0.27c-9.98-0.82-18.35,2.43-22.42,8.7
		c-1.85,2.85-2.65,6.04-2.38,9.47c0.17,2.21,0.8,4.49,1.89,6.78c0.43,0.91,0.92,1.8,1.46,2.65c7.99,12.72,20.77,42.84,23.75,54.44
		c2.54,9.89,18.49,24.79,33.17,35.16c1.52,1.08,2.89,2.01,4.16,2.84c4.25,2.8,8.06,4.95,11.04,6.22c2.6,1.11,5.47,1.65,8.44,1.65
		c5.86,0,12.1-2.1,17.39-6.06c8.01-6,13-15.53,14.32-26.89C984.99,2184.21,984.57,2184.01,984.14,2183.83z"/>
	<path class="st1" d="M1024.12,2133.93l-0.01,0.17c-1.24-0.02-2.46-0.05-3.34-0.1c-1.36-0.08-7.54-1.6-13.26-3.06
		c-1.59-0.5-3.89-1.22-6.56-2.05c-4.86-1.51-14.04-4.32-20.89-6.21c-3.96-1.09-7.15-5.41-10.53-9.99
		c-4.47-6.07-9.54-12.95-18.3-15.47c-2.36-0.68-4.73-1.11-7.03-1.3c-7.75-0.64-14.44,1.58-17.9,5.94c-1.51,1.9-4.57,7.15-0.35,14.79
		c1.67,3.02,4.66,7.71,8.2,12.87c0.96,1.41,1.98,2.87,3.04,4.37c5.04,7.13,22.27,30.8,32.25,36.19c3.46,1.87,6.32,3.35,8.99,4.68
		c1.71,0.85,3.12,1.52,4.44,2.12c9,4.14,15.84,6.13,21.18,6.13c1.06,0,2.06-0.08,3.01-0.23c7.98-1.32,18.96-4.96,22.13-21.22
		c1.9-9.76,2.71-20.03,3.03-25.28l0.12-2.04L1024.12,2133.93z"/>
	<path class="st1" d="M789.35,2119.75l-0.02,0.04l-58.75,0.3l-0.09,0.33l-0.34-0.33l-1.75,2.91c-2.95,4.89-6.62,10.97-6.74,16.8
		c-0.1,4.91,2.47,9.4,7.24,12.64c4.68,3.18,11.82,5.24,19.74,5.24c6.85,0,14.29-1.54,21.2-5.23c12.58-6.71,21.65-19.87,27.05-29.73
		l1.62-2.96h-9.16V2119.75z"/>
	<path class="st1" d="M2023.94,2100.58c4.52-5.78,10.27-11.74,19.07-14.27c2.84-0.81,5.69-1.34,8.48-1.57
		c10.01-0.82,18.46,2.12,23.2,8.07l0,0c0.61,0.76,1.39,1.9,2.07,3.36c0.14-0.19,0.29-0.37,0.43-0.56l-79.93-120.33
		c14.41-7.45,25.96-17.62,34.39-30.3c9.58-14.41,14.44-31.05,14.44-49.46c0-23.6-7.18-41.95-21.34-54.54
		c-13.88-12.33-33.86-18.59-59.37-18.59h-82.08v284h45.8v-115.58h25.95L2023.94,2100.58z M1929.09,1951.08v-88.95h17.75
		c52.24,0,52.24,27.92,52.24,37.09c0,17.12-5.07,29.68-15.49,38.41c-10.66,8.92-26.73,13.45-47.78,13.45H1929.09z"/>
	<path class="st1" d="M2069.01,2213.44c0.71,2.47,1.84,5.38,3.63,8.66c2.56,4.7,7.74,8.05,13.5,8.73c5.9,0.7,11.39-1.4,15.46-5.92
		c3.17-3.5,7.01-7.31,10.73-10.98l1.06-1.05c1.52-1.51,3.07-3.04,4.59-4.59c0.04-0.04,0.09-0.1,0.15-0.15l0.09-0.1
		c7.6-7.71,15.6-16.47,17.24-23.01c0.95-3.79,2.21-8.94,3.58-14.49l0.79-3.23c2.85-11.64,6.09-24.83,7.54-30
		c1.77-6.34,2.57-19.4-7.1-23.5c-2.55-1.08-5.08-1.52-7.51-1.32c-0.11,0.01-0.22,0.03-0.33,0.04c0.15-0.82,0.28-1.64,0.36-2.47
		c0.17-1.74,0.19-3.78-0.05-5.82c3.53-0.18,7.14,0.48,10.74,2c4.91,2.08,8.52,5.63,10.73,10.55c0.92,2.05,1.58,4.31,1.97,6.71
		c0.84,5.03,0.5,11.02-0.91,16.03c-1.4,5-4.45,17.39-7.72,30.73l-0.52,2.13c-1.37,5.61-2.65,10.82-3.61,14.65
		c-2.1,8.35-10.64,17.89-18.72,26.13c-1.14,1.16-2.28,2.31-3.42,3.44c-0.88,0.88-1.76,1.75-2.63,2.61l-0.57,0.57
		c-4.15,4.11-7.56,7.5-10.41,10.66c-5.11,5.66-12.05,8.75-19.4,8.75c-1.04,0-2.08-0.06-3.13-0.19c-8.37-1-15.94-5.96-19.75-12.97
		c-1.57-2.88-2.72-5.56-3.57-7.98C2064.32,2216.78,2066.71,2215.15,2069.01,2213.44z"/>
	<path class="st1" d="M1972.93,2134.62l0.12,1.95c0.31,5.08,1.1,14.96,2.88,24.1c2.03,10.41,7.63,13.39,15.4,14.67
		c2.96,0.49,9.26-0.28,22.45-6.67l0.55-0.27c3.9-1.91,7.47-3.84,9.39-4.88c9.9-5.35,33.88-38.74,40.19-50.17
		c2.02-3.66,0.81-5.18,0.41-5.68c-2.4-3.02-9.38-3.81-16.24-1.84c-6.06,1.74-10.06,7.17-13.95,12.44
		c-4.06,5.5-8.26,11.2-14.97,13.04c-4.84,1.32-11.83,3.4-20.77,6.17l-0.18,0.06c-4.77,1.48-8.22,2.59-8.4,2.65
		c-2.15,0.68-4.47-0.51-5.16-2.66c-0.16-0.48-0.22-1-0.19-1.57c0.13-1.67,1.25-3.08,2.83-3.6c0.13-0.04,3.85-1.22,8.82-2.77
		c4.86-1.51,14.04-4.32,20.89-6.21c3.96-1.09,7.15-5.41,10.53-9.99c4.47-6.07,9.54-12.95,18.3-15.47c2.36-0.68,4.73-1.11,7.03-1.3
		c7.75-0.64,14.44,1.58,17.9,5.94c1.51,1.9,4.57,7.15,0.35,14.79c-1.67,3.02-4.66,7.71-8.2,12.87c-0.96,1.41-1.98,2.87-3.04,4.37
		c-5.04,7.13-22.27,30.8-32.25,36.19c-3.46,1.87-6.32,3.35-8.99,4.68c-1.71,0.85-3.12,1.52-4.44,2.12c-9,4.14-15.84,6.13-21.18,6.13
		c-1.06,0-2.06-0.08-3.01-0.23c-7.98-1.32-18.96-4.96-22.13-21.22c-1.9-9.76-2.71-20.03-3.03-25.28l-0.12-2.04L1972.93,2134.62z"/>
	<path class="st1" d="M2012.91,2184.51c2.17-0.92,4.43-1.59,6.71-2.16c0.73,9.93,4.64,18.1,11.27,23.05
		c5.67,4.26,12.61,5.61,17.67,3.44c3.32-1.42,7.85-4.1,12.75-7.52l0.25-0.17c13.59-9.52,28.77-23.72,30.64-31.01
		c3.14-12.25,16.2-43.14,24.75-56.77c0.44-0.7,0.82-1.42,1.14-2.12c0.93-2.11,1.66-5.19-0.11-7.92c-2.54-3.93-9.26-5.84-16.71-4.77
		c-6.4,0.92-12.28,6.96-17.5,14.49c-0.08-1.9-0.29-3.8-0.62-5.71c-0.04-0.25-0.09-0.5-0.14-0.75c-0.29-1.54-0.67-3.08-1.13-4.62
		c5.22-6.03,11.22-10.56,18.21-11.56c0.76-0.11,1.54-0.2,2.36-0.27c9.98-0.82,18.35,2.43,22.42,8.7c1.85,2.85,2.65,6.04,2.38,9.47
		c-0.17,2.21-0.8,4.49-1.89,6.78c-0.43,0.91-0.92,1.8-1.46,2.65c-7.99,12.72-20.77,42.84-23.75,54.44
		c-2.54,9.89-18.49,24.79-33.17,35.16c-1.52,1.08-2.89,2.01-4.16,2.84c-4.25,2.8-8.06,4.95-11.04,6.22
		c-2.6,1.11-5.47,1.65-8.44,1.65c-5.86,0-12.1-2.1-17.39-6.06c-8.01-6-13-15.53-14.32-26.89
		C2012.05,2184.89,2012.48,2184.7,2012.91,2184.51z"/>
	<path class="st1" d="M2151.85,2127.35c-0.24-0.02-0.48-0.06-0.72-0.12c-2.19-0.59-3.49-2.85-2.9-5.04c0.16-0.6,0.35-1.18,0.56-1.75
		c1.41,1.93,2.79,3.92,2.95,6.19C2151.75,2126.88,2151.8,2127.12,2151.85,2127.35z"/>
	<path class="st1" d="M2134.72,2215.71c1.17,2.17,2.84,4.34,4.77,6.08c3.79,3.42,8.22,5.02,12.49,4.51
		c11.2-1.36,18-11.99,21.42-33.46c3.47-21.76,8.72-54.65,7.96-65.41c-0.41-5.68-5.71-9.6-10.61-10.1c-2.46-0.25-4.57,0.33-6.19,1.62
		c-0.08-0.18-0.16-0.35-0.26-0.52c-1.08-2.06-2.5-3.88-3.61-5.92c-0.09-0.16-0.18-0.3-0.27-0.44c2.21-1.66,4.85-2.68,7.78-2.95
		c1.03-0.09,2.12-0.09,3.25,0.02c6.74,0.7,14.94,5.65,16.98,14.86c0.21,0.92,0.35,1.86,0.42,2.8c0.04,0.58,0.07,1.2,0.08,1.86
		c0.25,13.07-4.79,44.68-8.13,65.6c-4.03,25.27-13.19,38.42-28.01,40.21c-0.79,0.09-1.59,0.14-2.38,0.14
		c-5.53,0-11.03-2.25-15.71-6.48c-1.96-1.77-4.69-4.43-6.12-6.62C2130.44,2219.55,2132.69,2217.81,2134.72,2215.71z"/>
	<path class="st1" d="M2164.08,2117.7c0,0,3.57,8.53,1.19,19.37c-2.38,10.84-8.46,34.99-9.52,40.34s-3.44,16.34-7.01,21.54
		s-16.19,18.91-16.19,18.91l15.79,11.88l19.83-8.96l9.78-30.07l6.69-44.77l-1.67-21.71l-1.85-7.69l-7.14-3.43L2164.08,2117.7z"/>
	<path class="st1" d="M2133.25,2108.16c0,0-3.33,18.85-8.1,28.15c-4.77,9.3-14.17,30.37-14.31,35.52c-0.14,5.15-1.59,12.96-8.1,17.3
		s-36.43,26.25-36.43,26.25l4.34,12.79l23.57,5.78l30.44-25.73l15.1-27.33l12.1-44.58l-1.88-18.61l-6.6-7.95L2133.25,2108.16z"/>
	<path class="st1" d="M2082.29,2103.44c0.07,1.05,0.14,2.77-0.05,4.86c-0.72,7.66-4.29,13.16-6.07,15.84
		c-27.15,40.77-33.22,46.42-41.85,51.43c-3.97,2.31-10.39,5.59-19.16,8.09l10.48,19.97c2.73,6.37,8.68,10.7,15.4,11.17
		c8.96,0.63,14.62-5.94,15.18-6.61l31.55-22.99l10.04-19.67l15.33-39.53l9-24.72l-10.26-6.4l-18.69,1.64L2082.29,2103.44z"/>
	<path class="st1" d="M2000.02,2128.9c0,0-21.08,5.64-23.74,5.8c-2.66,0.16-8.44,0.11-8.44,0.11l1.78,28.12l8.83,10.13l13.88,7.16
		l31.07-12.5l25.52-26.75c15.02-13.23,21.93-27.56,17.58-35.35c-0.83-1.49-2.31-3.17-5.15-4.55l-13.49,2.21l-11.08,7.55
		l-19.99,21.16L2000.02,2128.9z"/>
	<path class="st1" d="M2265.48,2123.28l-1.75-2.91l-0.34,0.33l-0.09-0.33l-58.75-0.3l-0.02-0.04h-9.15l1.62,2.96
		c5.4,9.86,14.48,23.02,27.05,29.73c6.91,3.69,14.34,5.23,21.2,5.23c7.92,0,15.06-2.06,19.74-5.24c4.76-3.24,7.33-7.73,7.24-12.64
		C2272.09,2134.25,2268.42,2128.17,2265.48,2123.28z"/>
	<path class="st1" d="M1620.69,699.49"/>
</g>
</svg>
